<svg xmlns="http://www.w3.org/2000/svg" version="1.1" xmlns:xlink="http://www.w3.org/1999/xlink" width="512" height="512" x="0" y="0" viewBox="0 0 128 128" style="enable-background:new 0 0 512 512" xml:space="preserve" class=""><g transform="matrix(0.8099999999999999,0,0,0.8099999999999999,12.160025005340614,12.16112451553348)"><path d="m46.661 34.825 7.58 5.542-2.876 8.94a3.26 3.26 0 0 0 1.192 3.642 3.259 3.259 0 0 0 3.83.005L64 47.458l7.611 5.495a3.263 3.263 0 0 0 3.832-.004 3.261 3.261 0 0 0 1.192-3.643l-2.875-8.939 7.579-5.542c1.141-.835 1.616-2.3 1.179-3.645s-1.682-2.253-3.097-2.258l-9.39-.027-2.927-8.921c-.44-1.345-1.688-2.25-3.104-2.25s-2.663.905-3.104 2.249l-2.927 8.922-9.39.027c-3.108-.027-4.45 4.1-1.918 5.903zm11.847-1.932a3.262 3.262 0 0 0 3.096-2.247L64 23.345l2.396 7.302a3.26 3.26 0 0 0 3.094 2.246l7.684.022-6.203 4.536a3.262 3.262 0 0 0-1.182 3.637l2.354 7.314c-9.732-6.85-6.574-6.826-16.286 0l2.354-7.314a3.262 3.262 0 0 0-1.182-3.637l-6.203-4.536zM112.465 83.46l-7.399-27.622c-.257-1.044-1.418-1.714-2.45-1.414l-9.604 2.578a2 2 0 0 0-1.414 2.447l.436 1.628c-8.393.784-13-5.17-21.554-5.735-3.62-.455-12.298 1.066-14.904 2.138-2.018.8-3.016 2.587-4.28 4.37-2.832 1.909-8.228 1.671-15.359-.664l.465-1.737a2 2 0 0 0-1.414-2.447l-9.604-2.578c-1.034-.299-2.193.37-2.45 1.414L15.535 83.46c-.298 1.032.371 2.193 1.415 2.45l9.606 2.568c1.03.3 2.194-.372 2.449-1.417l.149-.555c.332.178.647.35.944.517-3.083 4.052-.172 7.324 3.391 8.365.373 1.746 1.638 3.354 2.606 4.574 1.019 1.537 2.899 2.23 4.637 1.686.537.715 1.302 1.365 2.3 1.899.121.065 2.131 1.125 3.989 1.125.605 0 1.194-.114 1.696-.41 1.644 2.915 5.806 2.882 8.711 1.412 2.503 2.29 5.144 4.824 7.281 4.6 2.094.004 4.099-1.06 5.055-2.714 3.432 1.142 7.653-.245 8.797-3.576 3.164.03 5.894-2.157 6.533-5.025 3.82-.38 7.198-3.995 5.56-8.147 3.34-.679 6.304-1.868 8.677-3.08.472.649 1.33.968 2.113.746l9.606-2.569c1.043-.256 1.714-1.417 1.415-2.45zm-86.81.639-5.739-1.536 6.363-23.757 5.743 1.542c-1.594 5.952-4.802 17.9-6.368 23.75zm9.326 7.55c-.99-.191-1.928-.747-2.138-1.223-.152-.344.423-.97.558-1.113.97-.732 2.683-1.995 3.807-2.344 1.23-.33 2.03-.161 2.545.182.014.012.032.024.045.037-1.38 1.172-3.469 3.05-4.817 4.461zm8.789 1.286c-.447.601-2.705 3.667-3.199 4.333a.41.41 0 0 0-.078.087l-.002.001c-.368.308-.846.494-1 .454l-.26-.33c-.535-.674-1.451-1.831-1.754-2.627 1.545-1.757 4.508-4.257 5.698-5.272 1.487-1.08 2.437-.494 2.11 1.098-.08.16-.253.478-.422.773l-1 1.364a1.555 1.555 0 0 0-.093.119zm6.838.808c-.543 1.38-3.048 5.808-3.88 6.914-.832-.114-2.25-.747-2.73-1.28.561-.768 2.562-3.456 3.08-4.179l1.075-1.47c.041-.056.08-.114.116-.174.75-1.29.83-1.611.866-1.771.84.262 1.679.992 1.473 1.96zm2.194 8.876c-.461-.093-.581-.278-.642-.386-.387-.554.726-3.804 1.494-4.583a3.29 3.29 0 0 1 .637-.555c.044.178.087.445.103.826a6.628 6.628 0 0 0-.192 1.52c-.072.65-.003 1.524.31 2.242.07.253.156.504.251.754-.618.181-1.368.297-1.961.182zm33.843-8.637c-.744.87-2.077 1.2-2.562.832l-10.495-9.733a2.001 2.001 0 0 0-2.72 2.934l10.277 9.531c.347 1.655-1.955 3.025-3.663 2.156l-9.604-9.363a2 2 0 1 0-2.793 2.863l9.634 9.392c.064.164.035.379-.415.72-1.053.794-3.366 1.12-4.987-.704-.01-.018-6.353-6.89-6.37-6.913-1.81-1.901-4.692.745-2.941 2.711l6.218 6.747c.452.616-.823 1.139-1.518 1.12a1.688 1.688 0 0 0-.14 0c-1.581-.62-4.209-3.542-5.739-4.642a9.975 9.975 0 0 1-.454-1.036 3.91 3.91 0 0 1-.162-1.065c.054-.352.126-.713.167-1.07.235-1.361-.052-2.68-.764-3.7-1.055-1.606-2.101-1.73-3-1.8-.234-2.931-2.985-5.136-5.825-5.29-.954-2.03-3.311-3.068-5.468-2.5-.114-.174-.268-.326-.408-.487l-.1-.12c-.103-.109-.202-.217-.316-.319-1.405-1.172-3.163-2.203-6.882-.956a10.6 10.6 0 0 0-2.168 1.04 70.807 70.807 0 0 0-3.23-1.79c1.154-4.313 3.54-13.213 4.685-17.48 4.683 1.518 8.689 2.212 12.011 2.063-.957 1.042-1.805 2.101-2.32 3.182-.614 1.066-.857 2.043-.533 3.004l.14.318c.221.408.493.763.791 1.087.527.614 1.275 1.044 2.03 1.341 2.557.936 5.365.189 7.442-1.062 2.981-1.5 4.987-4.408 8.075-5.666 1.43-.452 2.906-.086 4.383.798 2.908 1.953 6.103 5.973 8.69 9.318 1.785 2.394 3.67 4.968 5.308 6.525 1.432 1.66 3.038 3.412 4.76 4.809l.605.605.027-.002c1.313 1.447.591 2.301.334 2.602zm1.065-6.733c-1.687-1.444-3.128-3.15-4.575-4.857-1.207-1.284-2.873-3.474-4.33-5.357-2.843-3.816-6.092-8.065-9.788-10.315-1.366-.894-2.762-1.512-4.187-1.708l-.144-.015c-1.233-.083-2.47.153-3.572.583-.037.012-.073.02-.11.033-3.18 1.255-5.951 4.44-8.699 5.993-1.011.496-2.103.84-3.01.848a4.475 4.475 0 0 1-.733-.085 2.714 2.714 0 0 1-.437-.2c.82-1.257 2.55-3.082 3.669-4.363 1.181-1.234 2.167-2.357 2.663-3.498.787-1.107 1.944-2.979 2.642-3.128 2.14-.882 10.004-2.225 12.958-1.862 8.754.825 13.376 7.074 23.02 5.66l5.059 18.876c-2.68 1.436-6.331 2.942-10.426 3.395zm14.632-3.15-6.364-23.751 5.743-1.542 6.363 23.757z" fill="#000974" opacity="1" data-original="#000000" class=""></path></g></svg>