<?xml version="1.0" encoding="UTF-8"?>
<!DOCTYPE svg PUBLIC "-//W3C//DTD SVG 1.1//EN" "http://www.w3.org/Graphics/SVG/1.1/DTD/svg11.dtd">
<svg xmlns="http://www.w3.org/2000/svg" version="1.1" width="328px" height="154px" style="shape-rendering:geometricPrecision; text-rendering:geometricPrecision; image-rendering:optimizeQuality; fill-rule:evenodd; clip-rule:evenodd" xmlns:xlink="http://www.w3.org/1999/xlink">
<g><path style="opacity:1" fill="#161719" d="M -0.5,-0.5 C 13.8333,-0.5 28.1667,-0.5 42.5,-0.5C 42.5,7.5 42.5,15.5 42.5,23.5C 41.5,23.5 40.5,23.5 39.5,23.5C 39.5,26.1667 39.5,28.8333 39.5,31.5C 40.5,31.5 41.5,31.5 42.5,31.5C 42.5,42.1667 42.5,52.8333 42.5,63.5C 38.8333,63.5 35.1667,63.5 31.5,63.5C 31.5,60.8333 31.5,58.1667 31.5,55.5C 24.5,55.5 17.5,55.5 10.5,55.5C 10.5,58.1667 10.5,60.8333 10.5,63.5C 9.12656,63.3433 7.79323,63.51 6.5,64C 4.5779,66.4295 2.24457,68.2628 -0.5,69.5C -0.5,46.1667 -0.5,22.8333 -0.5,-0.5 Z"/></g>
<g><path style="opacity:1" fill="#131416" d="M 42.5,-0.5 C 56.5,-0.5 70.5,-0.5 84.5,-0.5C 84.5,2.16667 84.5,4.83333 84.5,7.5C 82.8333,7.5 81.1667,7.5 79.5,7.5C 79.5,10.1667 79.5,12.8333 79.5,15.5C 76.8333,15.5 74.1667,15.5 71.5,15.5C 71.5,18.1667 71.5,20.8333 71.5,23.5C 68.8333,23.5 66.1667,23.5 63.5,23.5C 63.5,26.1667 63.5,28.8333 63.5,31.5C 60.8333,31.5 58.1667,31.5 55.5,31.5C 55.5,34.1667 55.5,36.8333 55.5,39.5C 54.5,39.5 53.5,39.5 52.5,39.5C 52.5,42.1667 52.5,44.8333 52.5,47.5C 56.1667,47.5 59.8333,47.5 63.5,47.5C 63.5,50.1667 63.5,52.8333 63.5,55.5C 68.8333,55.5 74.1667,55.5 79.5,55.5C 79.5,58.1667 79.5,60.8333 79.5,63.5C 81.1667,63.5 82.8333,63.5 84.5,63.5C 84.5,66.1667 84.5,68.8333 84.5,71.5C 87.1667,71.5 89.8333,71.5 92.5,71.5C 92.1686,80.1922 92.502,88.8589 93.5,97.5C 94.1818,96.7573 94.8485,96.0906 95.5,95.5C 95.2267,97.451 95.8934,98.951 97.5,100C 97.1667,100.333 96.8333,100.667 96.5,101C 64.1684,101.5 31.8351,101.667 -0.5,101.5C -0.5,90.8333 -0.5,80.1667 -0.5,69.5C 2.24457,68.2628 4.5779,66.4295 6.5,64C 7.79323,63.51 9.12656,63.3433 10.5,63.5C 10.5,60.8333 10.5,58.1667 10.5,55.5C 17.5,55.5 24.5,55.5 31.5,55.5C 31.5,58.1667 31.5,60.8333 31.5,63.5C 35.1667,63.5 38.8333,63.5 42.5,63.5C 42.5,52.8333 42.5,42.1667 42.5,31.5C 41.5,31.5 40.5,31.5 39.5,31.5C 39.5,28.8333 39.5,26.1667 39.5,23.5C 40.5,23.5 41.5,23.5 42.5,23.5C 42.5,15.5 42.5,7.5 42.5,-0.5 Z"/></g>
<g><path style="opacity:1" fill="#161719" d="M 84.5,-0.5 C 93.5,-0.5 102.5,-0.5 111.5,-0.5C 111.5,2.16667 111.5,4.83333 111.5,7.5C 108.833,7.5 106.167,7.5 103.5,7.5C 103.5,10.1667 103.5,12.8333 103.5,15.5C 102.167,15.5 100.833,15.5 99.5,15.5C 99.5,18.1667 99.5,20.8333 99.5,23.5C 98.1667,23.5 96.8333,23.5 95.5,23.5C 95.5,28.8333 95.5,34.1667 95.5,39.5C 98.1667,39.5 100.833,39.5 103.5,39.5C 103.5,42.1667 103.5,44.8333 103.5,47.5C 106.167,47.5 108.833,47.5 111.5,47.5C 111.5,50.1667 111.5,52.8333 111.5,55.5C 108.833,55.5 106.167,55.5 103.5,55.5C 103.61,66.1851 103.277,76.8518 102.5,87.5C 101.5,87.5 100.5,87.5 99.5,87.5C 99.5,89.8333 99.5,92.1667 99.5,94.5C 97.901,94.2322 96.5676,94.5655 95.5,95.5C 94.8485,96.0906 94.1818,96.7573 93.5,97.5C 92.502,88.8589 92.1686,80.1922 92.5,71.5C 89.8333,71.5 87.1667,71.5 84.5,71.5C 84.5,68.8333 84.5,66.1667 84.5,63.5C 82.8333,63.5 81.1667,63.5 79.5,63.5C 79.5,60.8333 79.5,58.1667 79.5,55.5C 74.1667,55.5 68.8333,55.5 63.5,55.5C 63.5,52.8333 63.5,50.1667 63.5,47.5C 59.8333,47.5 56.1667,47.5 52.5,47.5C 52.5,44.8333 52.5,42.1667 52.5,39.5C 53.5,39.5 54.5,39.5 55.5,39.5C 55.5,36.8333 55.5,34.1667 55.5,31.5C 58.1667,31.5 60.8333,31.5 63.5,31.5C 63.5,28.8333 63.5,26.1667 63.5,23.5C 66.1667,23.5 68.8333,23.5 71.5,23.5C 71.5,20.8333 71.5,18.1667 71.5,15.5C 74.1667,15.5 76.8333,15.5 79.5,15.5C 79.5,12.8333 79.5,10.1667 79.5,7.5C 81.1667,7.5 82.8333,7.5 84.5,7.5C 84.5,4.83333 84.5,2.16667 84.5,-0.5 Z"/></g>
<g><path style="opacity:1" fill="#1b1b1e" d="M 111.5,-0.5 C 122.167,-0.5 132.833,-0.5 143.5,-0.5C 143.5,2.16667 143.5,4.83333 143.5,7.5C 141.5,7.5 139.5,7.5 137.5,7.5C 137.5,10.1667 137.5,12.8333 137.5,15.5C 134.167,15.5 130.833,15.5 127.5,15.5C 127.5,20.8333 127.5,26.1667 127.5,31.5C 128.552,31.3505 129.552,31.5172 130.5,32C 126.249,36.2312 124.249,41.3979 124.5,47.5C 123.5,47.5 122.5,47.5 121.5,47.5C 121.5,48.8333 121.5,50.1667 121.5,51.5C 121.709,52.9217 122.209,54.255 123,55.5C 125.953,47.8336 126.786,47.8336 125.5,55.5C 126.091,56.1515 126.757,56.8182 127.5,57.5C 126.398,58.1757 125.398,58.8423 124.5,59.5C 122.665,60.1223 121.498,61.4556 121,63.5C 119.364,68.7424 117.53,73.9091 115.5,79C 115.836,80.0299 116.503,80.5299 117.5,80.5C 116.535,81.8758 115.535,83.2092 114.5,84.5C 113.897,86.1897 112.897,87.6897 111.5,89C 111.957,89.414 112.291,89.914 112.5,90.5C 111.05,91.8498 110.383,93.5165 110.5,95.5C 111.514,96.6737 112.847,97.3404 114.5,97.5C 113.737,98.2679 112.737,98.7679 111.5,99C 113.432,100.459 115.432,101.625 117.5,102.5C 78.1667,102.5 38.8333,102.5 -0.5,102.5C -0.5,102.167 -0.5,101.833 -0.5,101.5C 31.8351,101.667 64.1684,101.5 96.5,101C 96.8333,100.667 97.1667,100.333 97.5,100C 95.8934,98.951 95.2267,97.451 95.5,95.5C 96.5676,94.5655 97.901,94.2322 99.5,94.5C 99.5,92.1667 99.5,89.8333 99.5,87.5C 100.5,87.5 101.5,87.5 102.5,87.5C 103.277,76.8518 103.61,66.1851 103.5,55.5C 106.167,55.5 108.833,55.5 111.5,55.5C 111.5,52.8333 111.5,50.1667 111.5,47.5C 108.833,47.5 106.167,47.5 103.5,47.5C 103.5,44.8333 103.5,42.1667 103.5,39.5C 100.833,39.5 98.1667,39.5 95.5,39.5C 95.5,34.1667 95.5,28.8333 95.5,23.5C 96.8333,23.5 98.1667,23.5 99.5,23.5C 99.5,20.8333 99.5,18.1667 99.5,15.5C 100.833,15.5 102.167,15.5 103.5,15.5C 103.5,12.8333 103.5,10.1667 103.5,7.5C 106.167,7.5 108.833,7.5 111.5,7.5C 111.5,4.83333 111.5,2.16667 111.5,-0.5 Z"/></g>
<g><path style="opacity:1" fill="#1e1e22" d="M 143.5,-0.5 C 151.5,-0.5 159.5,-0.5 167.5,-0.5C 167.5,1.83333 167.5,4.16667 167.5,6.5C 164.833,6.5 162.167,6.5 159.5,6.5C 159.5,14.8333 159.5,23.1667 159.5,31.5C 154.489,31.3341 149.489,31.5007 144.5,32C 141.734,34.6455 138.567,35.1455 135,33.5C 133.027,34.6399 131.193,35.9733 129.5,37.5C 128.9,41.4744 127.567,45.1411 125.5,48.5C 124.358,49.8262 123.024,50.8262 121.5,51.5C 121.5,50.1667 121.5,48.8333 121.5,47.5C 122.5,47.5 123.5,47.5 124.5,47.5C 124.249,41.3979 126.249,36.2312 130.5,32C 129.552,31.5172 128.552,31.3505 127.5,31.5C 127.5,26.1667 127.5,20.8333 127.5,15.5C 130.833,15.5 134.167,15.5 137.5,15.5C 137.5,12.8333 137.5,10.1667 137.5,7.5C 139.5,7.5 141.5,7.5 143.5,7.5C 143.5,4.83333 143.5,2.16667 143.5,-0.5 Z"/></g>
<g><path style="opacity:1" fill="#232227" d="M 167.5,-0.5 C 220.833,-0.5 274.167,-0.5 327.5,-0.5C 327.5,10.1667 327.5,20.8333 327.5,31.5C 325.833,31.5 324.167,31.5 322.5,31.5C 322.5,34.1667 322.5,36.8333 322.5,39.5C 318.833,39.5 315.167,39.5 311.5,39.5C 311.5,36.8333 311.5,34.1667 311.5,31.5C 308.833,31.5 306.167,31.5 303.5,31.5C 303.5,30.5 303.5,29.5 303.5,28.5C 300.833,28.5 298.167,28.5 295.5,28.5C 295.5,29.5 295.5,30.5 295.5,31.5C 293.833,31.5 292.167,31.5 290.5,31.5C 290.5,34.1667 290.5,36.8333 290.5,39.5C 289.5,39.5 288.5,39.5 287.5,39.5C 287.5,36.8333 287.5,34.1667 287.5,31.5C 284.833,31.5 282.167,31.5 279.5,31.5C 279.5,33.1667 279.5,34.8333 279.5,36.5C 276.833,36.5 274.167,36.5 271.5,36.5C 271.5,38.5 271.5,40.5 271.5,42.5C 268.833,42.5 266.167,42.5 263.5,42.5C 263.5,38.8333 263.5,35.1667 263.5,31.5C 255.5,31.5 247.5,31.5 239.5,31.5C 239.5,29.8333 239.5,28.1667 239.5,26.5C 234.167,26.5 228.833,26.5 223.5,26.5C 223.5,25.5 223.5,24.5 223.5,23.5C 218.167,23.5 212.833,23.5 207.5,23.5C 207.5,26.1667 207.5,28.8333 207.5,31.5C 204.833,31.5 202.167,31.5 199.5,31.5C 199.5,32.5 199.5,33.5 199.5,34.5C 196.833,34.5 194.167,34.5 191.5,34.5C 191.5,33.5 191.5,32.5 191.5,31.5C 188.833,31.5 186.167,31.5 183.5,31.5C 183.5,34.1667 183.5,36.8333 183.5,39.5C 178.167,39.5 172.833,39.5 167.5,39.5C 167.5,42.1667 167.5,44.8333 167.5,47.5C 164.5,47.5 161.5,47.5 158.5,47.5C 158.477,49.9267 157.977,52.26 157,54.5C 156.598,53.1279 156.098,51.7946 155.5,50.5C 155.846,49.3044 156.346,49.3044 157,50.5C 157.667,49.8333 157.667,49.1667 157,48.5C 155.215,47.7599 153.382,47.0933 151.5,46.5C 150.537,46.9698 150.537,47.6365 151.5,48.5C 147.453,47.1587 143.453,45.8253 139.5,44.5C 138.178,44.67 137.011,44.3366 136,43.5C 134.728,46.4919 132.562,48.1586 129.5,48.5C 129.007,50.8056 128.674,53.139 128.5,55.5C 127.5,55.5 126.5,55.5 125.5,55.5C 126.786,47.8336 125.953,47.8336 123,55.5C 122.209,54.255 121.709,52.9217 121.5,51.5C 123.024,50.8262 124.358,49.8262 125.5,48.5C 127.567,45.1411 128.9,41.4744 129.5,37.5C 131.193,35.9733 133.027,34.6399 135,33.5C 138.567,35.1455 141.734,34.6455 144.5,32C 149.489,31.5007 154.489,31.3341 159.5,31.5C 159.5,23.1667 159.5,14.8333 159.5,6.5C 162.167,6.5 164.833,6.5 167.5,6.5C 167.5,4.16667 167.5,1.83333 167.5,-0.5 Z"/></g>
<g><path style="opacity:1" fill="#29282d" d="M 327.5,63.5 C 327.5,76.8333 327.5,90.1667 327.5,103.5C 296.833,103.5 266.167,103.5 235.5,103.5C 234.861,101.24 233.694,99.2396 232,97.5C 230.431,98.1222 228.764,98.4555 227,98.5C 221.662,96.6706 216.162,95.6706 210.5,95.5C 209.209,95.7373 208.209,95.404 207.5,94.5C 207.426,92.5891 206.426,91.4224 204.5,91C 195.229,89.5114 186.229,87.3448 177.5,84.5C 176.833,84.5 176.167,84.5 175.5,84.5C 174.103,82.6207 172.437,80.9541 170.5,79.5C 170.67,78.1779 170.337,77.0113 169.5,76C 171.022,73.6949 173.022,72.1949 175.5,71.5C 175.662,69.4727 175.495,67.4727 175,65.5C 173.865,65.273 172.698,64.9396 171.5,64.5C 172.407,61.5788 172.74,58.5788 172.5,55.5C 176.167,55.5 179.833,55.5 183.5,55.5C 183.5,52.8333 183.5,50.1667 183.5,47.5C 188.833,47.5 194.167,47.5 199.5,47.5C 199.5,44.8333 199.5,42.1667 199.5,39.5C 203.593,39.5222 207.593,40.1888 211.5,41.5C 215.407,40.1888 219.407,39.5222 223.5,39.5C 223.5,38.5 223.5,37.5 223.5,36.5C 226.167,36.5 228.833,36.5 231.5,36.5C 231.5,38.1667 231.5,39.8333 231.5,41.5C 239.432,40.1757 247.432,39.5091 255.5,39.5C 255.5,42.1667 255.5,44.8333 255.5,47.5C 260.833,47.5 266.167,47.5 271.5,47.5C 271.5,50.1667 271.5,52.8333 271.5,55.5C 275.593,55.5222 279.593,56.1888 283.5,57.5C 284.833,57.1667 286.167,56.8333 287.5,56.5C 286.675,55.6143 285.675,55.281 284.5,55.5C 284.5,52.8333 284.5,50.1667 284.5,47.5C 285.5,47.5 286.5,47.5 287.5,47.5C 287.5,46.5 287.5,45.5 287.5,44.5C 290.167,44.5 292.833,44.5 295.5,44.5C 295.5,42.8333 295.5,41.1667 295.5,39.5C 298.167,39.5 300.833,39.5 303.5,39.5C 303.5,42.1667 303.5,44.8333 303.5,47.5C 308.833,47.5 314.167,47.5 319.5,47.5C 319.5,52.8333 319.5,58.1667 319.5,63.5C 322.167,63.5 324.833,63.5 327.5,63.5 Z"/></g>
<g><path style="opacity:1" fill="#26252a" d="M 327.5,31.5 C 327.5,42.1667 327.5,52.8333 327.5,63.5C 324.833,63.5 322.167,63.5 319.5,63.5C 319.5,58.1667 319.5,52.8333 319.5,47.5C 314.167,47.5 308.833,47.5 303.5,47.5C 303.5,44.8333 303.5,42.1667 303.5,39.5C 300.833,39.5 298.167,39.5 295.5,39.5C 295.5,41.1667 295.5,42.8333 295.5,44.5C 292.833,44.5 290.167,44.5 287.5,44.5C 287.5,45.5 287.5,46.5 287.5,47.5C 286.5,47.5 285.5,47.5 284.5,47.5C 284.5,50.1667 284.5,52.8333 284.5,55.5C 285.675,55.281 286.675,55.6143 287.5,56.5C 286.167,56.8333 284.833,57.1667 283.5,57.5C 279.593,56.1888 275.593,55.5222 271.5,55.5C 271.5,52.8333 271.5,50.1667 271.5,47.5C 266.167,47.5 260.833,47.5 255.5,47.5C 255.5,44.8333 255.5,42.1667 255.5,39.5C 247.432,39.5091 239.432,40.1757 231.5,41.5C 231.5,39.8333 231.5,38.1667 231.5,36.5C 228.833,36.5 226.167,36.5 223.5,36.5C 223.5,37.5 223.5,38.5 223.5,39.5C 219.407,39.5222 215.407,40.1888 211.5,41.5C 207.593,40.1888 203.593,39.5222 199.5,39.5C 199.5,42.1667 199.5,44.8333 199.5,47.5C 194.167,47.5 188.833,47.5 183.5,47.5C 183.5,50.1667 183.5,52.8333 183.5,55.5C 179.833,55.5 176.167,55.5 172.5,55.5C 172.74,58.5788 172.407,61.5788 171.5,64.5C 172.698,64.9396 173.865,65.273 175,65.5C 175.495,67.4727 175.662,69.4727 175.5,71.5C 173.022,72.1949 171.022,73.6949 169.5,76C 170.337,77.0113 170.67,78.1779 170.5,79.5C 168.743,78.213 167.076,76.713 165.5,75C 162.568,74.0467 159.568,73.5467 156.5,73.5C 156.749,69.0221 159.082,66.1887 163.5,65C 162.584,64.6258 161.75,64.1258 161,63.5C 161.221,56.3817 158.888,55.0484 154,59.5C 153.51,58.2068 153.343,56.8734 153.5,55.5C 153.678,54.3052 154.011,53.1385 154.5,52C 153.456,50.8261 152.456,49.6594 151.5,48.5C 150.537,47.6365 150.537,46.9698 151.5,46.5C 153.382,47.0933 155.215,47.7599 157,48.5C 157.667,49.1667 157.667,49.8333 157,50.5C 156.346,49.3044 155.846,49.3044 155.5,50.5C 156.098,51.7946 156.598,53.1279 157,54.5C 157.977,52.26 158.477,49.9267 158.5,47.5C 161.5,47.5 164.5,47.5 167.5,47.5C 167.5,44.8333 167.5,42.1667 167.5,39.5C 172.833,39.5 178.167,39.5 183.5,39.5C 183.5,36.8333 183.5,34.1667 183.5,31.5C 186.167,31.5 188.833,31.5 191.5,31.5C 191.5,32.5 191.5,33.5 191.5,34.5C 194.167,34.5 196.833,34.5 199.5,34.5C 199.5,33.5 199.5,32.5 199.5,31.5C 202.167,31.5 204.833,31.5 207.5,31.5C 207.5,28.8333 207.5,26.1667 207.5,23.5C 212.833,23.5 218.167,23.5 223.5,23.5C 223.5,24.5 223.5,25.5 223.5,26.5C 228.833,26.5 234.167,26.5 239.5,26.5C 239.5,28.1667 239.5,29.8333 239.5,31.5C 247.5,31.5 255.5,31.5 263.5,31.5C 263.5,35.1667 263.5,38.8333 263.5,42.5C 266.167,42.5 268.833,42.5 271.5,42.5C 271.5,40.5 271.5,38.5 271.5,36.5C 274.167,36.5 276.833,36.5 279.5,36.5C 279.5,34.8333 279.5,33.1667 279.5,31.5C 282.167,31.5 284.833,31.5 287.5,31.5C 287.5,34.1667 287.5,36.8333 287.5,39.5C 288.5,39.5 289.5,39.5 290.5,39.5C 290.5,36.8333 290.5,34.1667 290.5,31.5C 292.167,31.5 293.833,31.5 295.5,31.5C 295.5,30.5 295.5,29.5 295.5,28.5C 298.167,28.5 300.833,28.5 303.5,28.5C 303.5,29.5 303.5,30.5 303.5,31.5C 306.167,31.5 308.833,31.5 311.5,31.5C 311.5,34.1667 311.5,36.8333 311.5,39.5C 315.167,39.5 318.833,39.5 322.5,39.5C 322.5,36.8333 322.5,34.1667 322.5,31.5C 324.167,31.5 325.833,31.5 327.5,31.5 Z"/></g>
<g><path style="opacity:1" fill="#6d5c55" d="M 139.5,44.5 C 143.453,45.8253 147.453,47.1587 151.5,48.5C 152.456,49.6594 153.456,50.8261 154.5,52C 154.011,53.1385 153.678,54.3052 153.5,55.5C 152.833,55.5 152.167,55.5 151.5,55.5C 150.942,54.2101 149.942,53.3768 148.5,53C 149.5,52.6667 150.5,52.3333 151.5,52C 149.841,50.1585 147.841,48.9919 145.5,48.5C 143.06,47.7622 141.06,46.4288 139.5,44.5 Z"/></g>
<g><path style="opacity:1" fill="#160e0a" d="M 139.5,44.5 C 141.06,46.4288 143.06,47.7622 145.5,48.5C 145.611,49.1174 145.944,49.6174 146.5,50C 145.263,50.2321 144.263,50.7321 143.5,51.5C 140.08,52.8885 136.914,54.2219 134,55.5C 133.552,53.7756 132.718,53.109 131.5,53.5C 133.754,51.1477 133.087,49.4811 129.5,48.5C 132.562,48.1586 134.728,46.4919 136,43.5C 137.011,44.3366 138.178,44.67 139.5,44.5 Z"/></g>
<g><path style="opacity:1" fill="#281b13" d="M 129.5,48.5 C 133.087,49.4811 133.754,51.1477 131.5,53.5C 132.718,53.109 133.552,53.7756 134,55.5C 136.914,54.2219 140.08,52.8885 143.5,51.5C 144.473,51.9867 145.473,52.4867 146.5,53C 144.192,54.9357 141.525,55.769 138.5,55.5C 138.5,56.5 138.5,57.5 138.5,58.5C 135.255,58.03 132.421,56.6966 130,54.5C 129.617,55.056 129.117,55.3893 128.5,55.5C 128.674,53.139 129.007,50.8056 129.5,48.5 Z"/></g>
<g><path style="opacity:1" fill="#5f3f32" d="M 145.5,48.5 C 147.841,48.9919 149.841,50.1585 151.5,52C 150.5,52.3333 149.5,52.6667 148.5,53C 149.942,53.3768 150.942,54.2101 151.5,55.5C 150.305,55.3225 149.138,54.9891 148,54.5C 145.375,55.9882 142.542,56.8215 139.5,57C 140.756,57.4169 141.423,58.2502 141.5,59.5C 140.391,59.4431 139.391,59.1098 138.5,58.5C 138.5,57.5 138.5,56.5 138.5,55.5C 141.525,55.769 144.192,54.9357 146.5,53C 145.473,52.4867 144.473,51.9867 143.5,51.5C 144.263,50.7321 145.263,50.2321 146.5,50C 145.944,49.6174 145.611,49.1174 145.5,48.5 Z"/></g>
<g><path style="opacity:1" fill="#866458" d="M 151.5,55.5 C 150.941,58.5164 150.275,61.5164 149.5,64.5C 147.599,65.2309 145.599,65.2309 143.5,64.5C 141.819,62.9925 139.819,61.9925 137.5,61.5C 139.017,60.2651 140.684,60.2651 142.5,61.5C 143.4,60.643 143.066,59.9763 141.5,59.5C 141.423,58.2502 140.756,57.4169 139.5,57C 142.542,56.8215 145.375,55.9882 148,54.5C 149.138,54.9891 150.305,55.3225 151.5,55.5 Z"/></g>
<g><path style="opacity:1" fill="#b49086" d="M 144.5,57.5 C 145.5,57.5 146.5,57.5 147.5,57.5C 150.025,63.7074 148.691,64.2074 143.5,59C 144.056,58.6174 144.389,58.1174 144.5,57.5 Z"/></g>
<g><path style="opacity:1" fill="#2b2625" d="M 151.5,55.5 C 152.167,55.5 152.833,55.5 153.5,55.5C 153.343,56.8734 153.51,58.2068 154,59.5C 158.888,55.0484 161.221,56.3817 161,63.5C 161.75,64.1258 162.584,64.6258 163.5,65C 159.082,66.1887 156.749,69.0221 156.5,73.5C 159.568,73.5467 162.568,74.0467 165.5,75C 167.076,76.713 168.743,78.213 170.5,79.5C 172.437,80.9541 174.103,82.6207 175.5,84.5C 173.446,83.3914 171.279,82.3914 169,81.5C 168.235,81.5699 167.735,81.9033 167.5,82.5C 166.778,83.5511 165.778,84.2178 164.5,84.5C 164.5,84.1667 164.5,83.8333 164.5,83.5C 166.052,79.3526 164.385,77.3526 159.5,77.5C 159.5,78.5 159.5,79.5 159.5,80.5C 158.891,83.8784 160.224,85.8784 163.5,86.5C 162.365,88.2132 160.698,88.8799 158.5,88.5C 158.665,85.1501 158.498,81.8168 158,78.5C 157.722,79.4158 157.222,80.0825 156.5,80.5C 156.371,78.7839 156.038,77.1172 155.5,75.5C 154.791,74.596 153.791,74.2627 152.5,74.5C 151.292,73.7659 149.959,73.4326 148.5,73.5C 147.549,72.0813 147.216,70.4147 147.5,68.5C 148.043,68.44 148.376,68.1067 148.5,67.5C 146.64,66.6751 144.974,65.6751 143.5,64.5C 145.599,65.2309 147.599,65.2309 149.5,64.5C 150.275,61.5164 150.941,58.5164 151.5,55.5 Z"/></g>
<g><path style="opacity:1" fill="#6f6d6e" d="M 124.5,59.5 C 124.5,59.8333 124.5,60.1667 124.5,60.5C 121.392,66.8197 119.059,73.4864 117.5,80.5C 116.503,80.5299 115.836,80.0299 115.5,79C 117.53,73.9091 119.364,68.7424 121,63.5C 121.498,61.4556 122.665,60.1223 124.5,59.5 Z"/></g>
<g><path style="opacity:1" fill="#26211f" d="M 117.5,80.5 C 119.059,73.4864 121.392,66.8197 124.5,60.5C 125.789,59.4991 127.122,59.6658 128.5,61C 126.665,61.9277 126.332,63.0944 127.5,64.5C 125.914,66.9231 124.914,69.5898 124.5,72.5C 121.716,74.939 119.382,77.6057 117.5,80.5 Z"/></g>
<g><path style="opacity:1" fill="#492616" d="M 137.5,61.5 C 139.819,61.9925 141.819,62.9925 143.5,64.5C 142.5,64.5 141.5,64.5 140.5,64.5C 139.432,63.5655 138.099,63.2322 136.5,63.5C 136.67,64.8221 136.337,65.9887 135.5,67C 136.5,67.3333 137.5,67.6667 138.5,68C 138.167,70.5244 137,73.0244 135,75.5C 134.51,76.7932 134.343,78.1266 134.5,79.5C 133.183,82.2301 133.183,85.0635 134.5,88C 133.5,88.3333 132.5,88.6667 131.5,89C 133.65,90.5899 135.983,91.2566 138.5,91C 137.672,90.0853 136.672,89.4186 135.5,89C 137.101,88.7266 138.601,88.2266 140,87.5C 140.191,85.2922 140.691,83.2922 141.5,81.5C 141.5,83.1667 141.5,84.8333 141.5,86.5C 140.156,89.5454 138.823,92.5454 137.5,95.5C 137.5,94.5 137.5,93.5 137.5,92.5C 135.035,92.233 132.701,91.5664 130.5,90.5C 127.662,88.6941 127.995,87.6941 131.5,87.5C 130.99,79.2779 131.99,71.2779 134.5,63.5C 135.739,63.0576 136.739,62.3909 137.5,61.5 Z"/></g>
<g><path style="opacity:1" fill="#9c6e60" d="M 140.5,64.5 C 141.5,64.5 142.5,64.5 143.5,64.5C 144.974,65.6751 146.64,66.6751 148.5,67.5C 148.376,68.1067 148.043,68.44 147.5,68.5C 146.025,70.0066 144.691,71.6732 143.5,73.5C 142.596,72.791 142.263,71.791 142.5,70.5C 142.386,68.2821 141.72,66.2821 140.5,64.5 Z"/></g>
<g><path style="opacity:1" fill="#130d0a" d="M 138.5,58.5 C 137.391,59.29 136.058,59.79 134.5,60C 134.833,60.3333 135.167,60.6667 135.5,61C 133.5,61.3333 131.5,61.6667 129.5,62C 130.167,62.3333 130.833,62.6667 131.5,63C 130.707,66.4106 130.207,69.9106 130,73.5C 126.353,76.0865 125.52,79.4198 127.5,83.5C 127.21,85.0441 126.544,86.3774 125.5,87.5C 126.025,88.1924 126.692,88.6924 127.5,89C 125.5,89 123.5,89 121.5,89C 123.125,89.8525 123.458,90.8525 122.5,92C 123.328,92.9147 124.328,93.5814 125.5,94C 123.192,95.8665 120.525,96.8665 117.5,97C 118.888,97.8893 118.722,98.3893 117,98.5C 116.098,98.2568 115.265,97.9234 114.5,97.5C 112.847,97.3404 111.514,96.6737 110.5,95.5C 112.074,95.0629 113.241,94.0629 114,92.5C 114.163,90.324 114.996,88.4907 116.5,87C 115.619,86.2917 114.953,85.4584 114.5,84.5C 115.535,83.2092 116.535,81.8758 117.5,80.5C 119.382,77.6057 121.716,74.939 124.5,72.5C 124.914,69.5898 125.914,66.9231 127.5,64.5C 126.332,63.0944 126.665,61.9277 128.5,61C 127.122,59.6658 125.789,59.4991 124.5,60.5C 124.5,60.1667 124.5,59.8333 124.5,59.5C 125.398,58.8423 126.398,58.1757 127.5,57.5C 126.757,56.8182 126.091,56.1515 125.5,55.5C 126.5,55.5 127.5,55.5 128.5,55.5C 129.117,55.3893 129.617,55.056 130,54.5C 132.421,56.6966 135.255,58.03 138.5,58.5 Z"/></g>
<g><path style="opacity:1" fill="#6d3c21" d="M 140.5,64.5 C 141.72,66.2821 142.386,68.2821 142.5,70.5C 141.289,74.7155 138.622,77.7155 134.5,79.5C 134.343,78.1266 134.51,76.7932 135,75.5C 137,73.0244 138.167,70.5244 138.5,68C 137.5,67.6667 136.5,67.3333 135.5,67C 136.337,65.9887 136.67,64.8221 136.5,63.5C 138.099,63.2322 139.432,63.5655 140.5,64.5 Z"/></g>
<g><path style="opacity:1" fill="#b49589" d="M 148.5,73.5 C 149.959,73.4326 151.292,73.7659 152.5,74.5C 150.649,78.3866 149.316,78.0532 148.5,73.5 Z"/></g>
<g><path style="opacity:1" fill="#af9483" d="M 164.5,83.5 C 162.515,82.9525 160.849,81.9525 159.5,80.5C 159.5,79.5 159.5,78.5 159.5,77.5C 164.385,77.3526 166.052,79.3526 164.5,83.5 Z"/></g>
<g><path style="opacity:1" fill="#6c4c40" d="M 147.5,68.5 C 147.216,70.4147 147.549,72.0813 148.5,73.5C 149.316,78.0532 150.649,78.3866 152.5,74.5C 153.791,74.2627 154.791,74.596 155.5,75.5C 152.916,76.0483 151.916,77.715 152.5,80.5C 153.833,80.5 155.167,80.5 156.5,80.5C 153.283,83.6876 151.45,83.021 151,78.5C 150.586,78.9574 150.086,79.2907 149.5,79.5C 148.781,77.4833 147.614,75.8166 146,74.5C 144.989,75.0556 144.156,75.7222 143.5,76.5C 143.5,75.5 143.5,74.5 143.5,73.5C 144.691,71.6732 146.025,70.0066 147.5,68.5 Z"/></g>
<g><path style="opacity:1" fill="#caafa8" d="M 155.5,75.5 C 156.038,77.1172 156.371,78.7839 156.5,80.5C 155.167,80.5 153.833,80.5 152.5,80.5C 151.916,77.715 152.916,76.0483 155.5,75.5 Z"/></g>
<g><path style="opacity:1" fill="#754d38" d="M 143.5,77.5 C 143.34,79.153 142.674,80.4863 141.5,81.5C 140.691,83.2922 140.191,85.2922 140,87.5C 138.601,88.2266 137.101,88.7266 135.5,89C 136.672,89.4186 137.672,90.0853 138.5,91C 135.983,91.2566 133.65,90.5899 131.5,89C 132.5,88.6667 133.5,88.3333 134.5,88C 133.183,85.0635 133.183,82.2301 134.5,79.5C 134.337,81.8568 134.503,84.1902 135,86.5C 136.011,87.3366 137.178,87.67 138.5,87.5C 138.326,83.0698 139.993,79.7365 143.5,77.5 Z"/></g>
<g><path style="opacity:1" fill="#93623b" d="M 142.5,70.5 C 142.263,71.791 142.596,72.791 143.5,73.5C 143.5,74.5 143.5,75.5 143.5,76.5C 143.5,76.8333 143.5,77.1667 143.5,77.5C 139.993,79.7365 138.326,83.0698 138.5,87.5C 137.178,87.67 136.011,87.3366 135,86.5C 134.503,84.1902 134.337,81.8568 134.5,79.5C 138.622,77.7155 141.289,74.7155 142.5,70.5 Z"/></g>
<g><path style="opacity:1" fill="#1b100b" d="M 156.5,80.5 C 157.222,80.0825 157.722,79.4158 158,78.5C 158.498,81.8168 158.665,85.1501 158.5,88.5C 160.698,88.8799 162.365,88.2132 163.5,86.5C 163.833,85.8333 164.167,85.1667 164.5,84.5C 165.778,84.2178 166.778,83.5511 167.5,82.5C 168.167,83.8333 168.833,85.1667 169.5,86.5C 171.5,87.8333 173.5,89.1667 175.5,90.5C 178.6,93.5758 182.434,95.2425 187,95.5C 188.933,96.8825 190.766,98.3825 192.5,100C 198.628,101.628 204.628,102.795 210.5,103.5C 211.914,105.054 213.581,106.388 215.5,107.5C 216.386,108.325 216.719,109.325 216.5,110.5C 219.906,110.956 223.239,111.622 226.5,112.5C 228.017,112.489 229.184,111.823 230,110.5C 231.706,111.308 232.539,112.641 232.5,114.5C 229.167,114.5 225.833,114.5 222.5,114.5C 213.637,111.626 204.97,108.293 196.5,104.5C 196.158,103.662 195.492,103.328 194.5,103.5C 182.98,97.1562 170.647,92.6562 157.5,90C 155.731,86.7434 153.231,85.91 150,87.5C 147.359,87.0974 145.026,86.0974 143,84.5C 142.722,85.4158 142.222,86.0825 141.5,86.5C 141.5,84.8333 141.5,83.1667 141.5,81.5C 142.674,80.4863 143.34,79.153 143.5,77.5C 143.5,77.1667 143.5,76.8333 143.5,76.5C 144.156,75.7222 144.989,75.0556 146,74.5C 147.614,75.8166 148.781,77.4833 149.5,79.5C 150.086,79.2907 150.586,78.9574 151,78.5C 151.45,83.021 153.283,83.6876 156.5,80.5 Z"/></g>
<g><path style="opacity:1" fill="#6b473a" d="M 159.5,80.5 C 160.849,81.9525 162.515,82.9525 164.5,83.5C 164.5,83.8333 164.5,84.1667 164.5,84.5C 164.167,85.1667 163.833,85.8333 163.5,86.5C 160.224,85.8784 158.891,83.8784 159.5,80.5 Z"/></g>
<g><path style="opacity:1" fill="#23140e" d="M 138.5,58.5 C 139.391,59.1098 140.391,59.4431 141.5,59.5C 143.066,59.9763 143.4,60.643 142.5,61.5C 140.684,60.2651 139.017,60.2651 137.5,61.5C 136.739,62.3909 135.739,63.0576 134.5,63.5C 131.99,71.2779 130.99,79.2779 131.5,87.5C 127.995,87.6941 127.662,88.6941 130.5,90.5C 129.624,90.3691 128.957,90.7025 128.5,91.5C 130.005,92.8415 130.672,94.5082 130.5,96.5C 127.126,96.6744 123.793,97.1744 120.5,98C 122.193,98.8466 123.86,99.6799 125.5,100.5C 124.845,101.646 122.845,101.479 119.5,100C 121.233,101.189 122.9,102.356 124.5,103.5C 122.833,103.5 121.167,103.5 119.5,103.5C 119.158,102.662 118.492,102.328 117.5,102.5C 115.432,101.625 113.432,100.459 111.5,99C 112.737,98.7679 113.737,98.2679 114.5,97.5C 115.265,97.9234 116.098,98.2568 117,98.5C 118.722,98.3893 118.888,97.8893 117.5,97C 120.525,96.8665 123.192,95.8665 125.5,94C 124.328,93.5814 123.328,92.9147 122.5,92C 123.458,90.8525 123.125,89.8525 121.5,89C 123.5,89 125.5,89 127.5,89C 126.692,88.6924 126.025,88.1924 125.5,87.5C 126.544,86.3774 127.21,85.0441 127.5,83.5C 125.52,79.4198 126.353,76.0865 130,73.5C 130.207,69.9106 130.707,66.4106 131.5,63C 130.833,62.6667 130.167,62.3333 129.5,62C 131.5,61.6667 133.5,61.3333 135.5,61C 135.167,60.6667 134.833,60.3333 134.5,60C 136.058,59.79 137.391,59.29 138.5,58.5 Z"/></g>
<g><path style="opacity:1" fill="#3a2d24" d="M 177.5,84.5 C 186.229,87.3448 195.229,89.5114 204.5,91C 206.426,91.4224 207.426,92.5891 207.5,94.5C 196.887,92.688 186.887,89.3547 177.5,84.5 Z"/></g>
<g><path style="opacity:1" fill="#464445" d="M 114.5,84.5 C 114.953,85.4584 115.619,86.2917 116.5,87C 114.996,88.4907 114.163,90.324 114,92.5C 113.241,94.0629 112.074,95.0629 110.5,95.5C 110.383,93.5165 111.05,91.8498 112.5,90.5C 112.291,89.914 111.957,89.414 111.5,89C 112.897,87.6897 113.897,86.1897 114.5,84.5 Z"/></g>
<g><path style="opacity:1" fill="#7f5130" d="M 169.5,86.5 C 172.787,87.1614 176.12,87.6614 179.5,88C 185.217,90.7945 191.217,92.7945 197.5,94C 198.571,94.8518 199.571,95.6851 200.5,96.5C 199.167,96.5 197.833,96.5 196.5,96.5C 189.958,93.3244 182.958,91.3244 175.5,90.5C 173.5,89.1667 171.5,87.8333 169.5,86.5 Z"/></g>
<g><path style="opacity:1" fill="#2a292d" d="M 194.5,103.5 C 179.833,103.5 165.167,103.5 150.5,103.5C 145.547,102.671 140.547,102.337 135.5,102.5C 135.5,102.167 135.5,101.833 135.5,101.5C 135.259,99.1016 135.926,97.1016 137.5,95.5C 138.823,92.5454 140.156,89.5454 141.5,86.5C 142.222,86.0825 142.722,85.4158 143,84.5C 145.026,86.0974 147.359,87.0974 150,87.5C 153.231,85.91 155.731,86.7434 157.5,90C 170.647,92.6562 182.98,97.1562 194.5,103.5 Z"/></g>
<g><path style="opacity:1" fill="#6b4638" d="M 130.5,90.5 C 132.701,91.5664 135.035,92.233 137.5,92.5C 137.5,93.5 137.5,94.5 137.5,95.5C 135.926,97.1016 135.259,99.1016 135.5,101.5C 133.122,100.312 130.622,99.3121 128,98.5C 126.624,98.6842 125.791,99.3509 125.5,100.5C 123.86,99.6799 122.193,98.8466 120.5,98C 123.793,97.1744 127.126,96.6744 130.5,96.5C 130.672,94.5082 130.005,92.8415 128.5,91.5C 128.957,90.7025 129.624,90.3691 130.5,90.5 Z"/></g>
<g><path style="opacity:1" fill="#58341a" d="M 196.5,96.5 C 197.833,96.5 199.167,96.5 200.5,96.5C 206.134,99.129 212.134,100.962 218.5,102C 220.093,102.949 221.426,104.115 222.5,105.5C 218.277,105.661 214.277,104.994 210.5,103.5C 206.866,100.367 202.533,98.8665 197.5,99C 196.748,98.3292 196.414,97.4959 196.5,96.5 Z"/></g>
<g><path style="opacity:1" fill="#a48166" d="M 167.5,82.5 C 167.735,81.9033 168.235,81.5699 169,81.5C 171.279,82.3914 173.446,83.3914 175.5,84.5C 176.167,84.5 176.833,84.5 177.5,84.5C 186.887,89.3547 196.887,92.688 207.5,94.5C 208.209,95.404 209.209,95.7373 210.5,95.5C 216.567,98.1096 222.9,100.276 229.5,102C 230.756,102.417 231.423,103.25 231.5,104.5C 231.631,105.376 231.298,106.043 230.5,106.5C 227.91,104.577 225.244,102.744 222.5,101C 217.699,101.035 213.366,99.7018 209.5,97C 206.518,96.502 203.518,96.3354 200.5,96.5C 199.571,95.6851 198.571,94.8518 197.5,94C 191.217,92.7945 185.217,90.7945 179.5,88C 176.12,87.6614 172.787,87.1614 169.5,86.5C 168.833,85.1667 168.167,83.8333 167.5,82.5 Z"/></g>
<g><path style="opacity:1" fill="#38322b" d="M 210.5,95.5 C 216.162,95.6706 221.662,96.6706 227,98.5C 228.764,98.4555 230.431,98.1222 232,97.5C 233.694,99.2396 234.861,101.24 235.5,103.5C 234.833,103.5 234.167,103.5 233.5,103.5C 232.833,103.5 232.5,103.833 232.5,104.5C 232.167,104.5 231.833,104.5 231.5,104.5C 231.423,103.25 230.756,102.417 229.5,102C 222.9,100.276 216.567,98.1096 210.5,95.5 Z"/></g>
<g><path style="opacity:1" fill="#2c1609" d="M 175.5,90.5 C 182.958,91.3244 189.958,93.3244 196.5,96.5C 196.414,97.4959 196.748,98.3292 197.5,99C 202.533,98.8665 206.866,100.367 210.5,103.5C 204.628,102.795 198.628,101.628 192.5,100C 190.766,98.3825 188.933,96.8825 187,95.5C 182.434,95.2425 178.6,93.5758 175.5,90.5 Z"/></g>
<g><path style="opacity:1" fill="#946b4e" d="M 200.5,96.5 C 203.518,96.3354 206.518,96.502 209.5,97C 213.366,99.7018 217.699,101.035 222.5,101C 225.244,102.744 227.91,104.577 230.5,106.5C 231.298,106.043 231.631,105.376 231.5,104.5C 231.833,104.5 232.167,104.5 232.5,104.5C 232.351,105.552 232.517,106.552 233,107.5C 233.333,107.167 233.667,106.833 234,106.5C 234.232,107.737 234.732,108.737 235.5,109.5C 235.217,110.289 234.717,110.956 234,111.5C 233,110.167 232,108.833 231,107.5C 230.667,107.833 230.333,108.167 230,108.5C 227.959,106.35 225.459,105.35 222.5,105.5C 221.426,104.115 220.093,102.949 218.5,102C 212.134,100.962 206.134,99.129 200.5,96.5 Z"/></g>
<g><path style="opacity:1" fill="#373538" d="M -0.5,103.5 C -0.5,103.167 -0.5,102.833 -0.5,102.5C 38.8333,102.5 78.1667,102.5 117.5,102.5C 118.492,102.328 119.158,102.662 119.5,103.5C 111.5,103.5 103.5,103.5 95.5,103.5C 63.7534,103.729 31.7534,103.729 -0.5,103.5 Z"/></g>
<g><path style="opacity:1" fill="#62463a" d="M 135.5,102.5 C 140.547,102.337 145.547,102.671 150.5,103.5C 152.969,104.317 155.635,104.817 158.5,105C 159.684,106.145 159.684,107.312 158.5,108.5C 157.833,108.5 157.167,108.5 156.5,108.5C 155.209,108.737 154.209,108.404 153.5,107.5C 151.5,106.833 149.5,106.167 147.5,105.5C 144.265,104.637 140.265,104.137 135.5,104C 130.206,103.182 130.206,102.682 135.5,102.5 Z"/></g>
<g><path style="opacity:1" fill="#53525a" d="M 233.5,103.5 C 234.167,103.5 234.833,103.5 235.5,103.5C 266.167,103.5 296.833,103.5 327.5,103.5C 327.5,103.833 327.5,104.167 327.5,104.5C 297.321,105.026 267.321,105.36 237.5,105.5C 237.565,105.938 237.399,106.272 237,106.5C 236.015,105.186 234.848,104.186 233.5,103.5 Z"/></g>
<g><path style="opacity:1" fill="#573323" d="M 95.5,103.5 C 103.5,103.5 111.5,103.5 119.5,103.5C 121.167,103.5 122.833,103.5 124.5,103.5C 131.994,105.353 139.661,106.02 147.5,105.5C 149.5,106.167 151.5,106.833 153.5,107.5C 147.162,107.767 140.829,108.1 134.5,108.5C 132.393,107.532 130.059,107.198 127.5,107.5C 117.219,105.524 106.552,104.857 95.5,105.5C 95.5,104.833 95.5,104.167 95.5,103.5 Z"/></g>
<g><path style="opacity:1" fill="#816151" d="M 135.5,101.5 C 135.5,101.833 135.5,102.167 135.5,102.5C 130.206,102.682 130.206,103.182 135.5,104C 140.265,104.137 144.265,104.637 147.5,105.5C 139.661,106.02 131.994,105.353 124.5,103.5C 122.9,102.356 121.233,101.189 119.5,100C 122.845,101.479 124.845,101.646 125.5,100.5C 125.791,99.3509 126.624,98.6842 128,98.5C 130.622,99.3121 133.122,100.312 135.5,101.5 Z"/></g>
<g><path style="opacity:1" fill="#190e08" d="M 93.5,105.5 C 94.1667,105.5 94.8333,105.5 95.5,105.5C 106.552,104.857 117.219,105.524 127.5,107.5C 119.5,107.5 111.5,107.5 103.5,107.5C 100.167,106.833 96.8333,106.167 93.5,105.5 Z"/></g>
<g><path style="opacity:1" fill="#724c37" d="M 100.5,107.5 C 101.5,107.5 102.5,107.5 103.5,107.5C 111.5,107.5 119.5,107.5 127.5,107.5C 130.059,107.198 132.393,107.532 134.5,108.5C 130.366,109.485 126.032,109.818 121.5,109.5C 114.3,109.422 107.3,108.755 100.5,107.5 Z"/></g>
<g><path style="opacity:1" fill="#b3998e" d="M 233.5,103.5 C 234.848,104.186 236.015,105.186 237,106.5C 237.399,106.272 237.565,105.938 237.5,105.5C 238.451,106.919 238.784,108.585 238.5,110.5C 237.883,110.611 237.383,110.944 237,111.5C 236.841,109.657 236.341,108.991 235.5,109.5C 234.732,108.737 234.232,107.737 234,106.5C 233.667,106.833 233.333,107.167 233,107.5C 232.517,106.552 232.351,105.552 232.5,104.5C 232.5,103.833 232.833,103.5 233.5,103.5 Z"/></g>
<g><path style="opacity:1" fill="#775f5b" d="M 153.5,107.5 C 154.209,108.404 155.209,108.737 156.5,108.5C 155.791,109.404 154.791,109.737 153.5,109.5C 149.064,109.21 144.73,109.71 140.5,111C 141.5,111.333 142.5,111.667 143.5,112C 141.608,112.973 139.608,113.64 137.5,114C 139.5,114.333 141.5,114.667 143.5,115C 142.263,115.232 141.263,115.732 140.5,116.5C 140.167,116.5 139.833,116.5 139.5,116.5C 137.833,116.5 136.167,116.5 134.5,116.5C 128.167,116.5 121.833,116.5 115.5,116.5C 114.167,115.833 112.833,115.167 111.5,114.5C 117.842,114.666 124.175,114.5 130.5,114C 131.938,113.781 133.271,113.281 134.5,112.5C 131.232,111.513 127.898,111.18 124.5,111.5C 123.5,110.833 122.5,110.167 121.5,109.5C 126.032,109.818 130.366,109.485 134.5,108.5C 140.829,108.1 147.162,107.767 153.5,107.5 Z"/></g>
<g><path style="opacity:1" fill="#d8c5b9" d="M 249.5,113.5 C 249.5,113.833 249.5,114.167 249.5,114.5C 246.08,113.643 243.746,111.643 242.5,108.5C 246.284,107.561 248.618,109.228 249.5,113.5 Z"/></g>
<g><path style="opacity:1" fill="#4d3125" d="M 100.5,107.5 C 107.3,108.755 114.3,109.422 121.5,109.5C 122.5,110.167 123.5,110.833 124.5,111.5C 123.178,111.33 122.011,111.663 121,112.5C 118.174,110.66 115.007,109.994 111.5,110.5C 106.167,110.167 100.833,109.833 95.5,109.5C 96.5521,107.744 98.2188,107.077 100.5,107.5 Z"/></g>
<g><path style="opacity:1" fill="#29170f" d="M 210.5,103.5 C 214.277,104.994 218.277,105.661 222.5,105.5C 223.592,108.024 224.926,110.357 226.5,112.5C 223.239,111.622 219.906,110.956 216.5,110.5C 216.719,109.325 216.386,108.325 215.5,107.5C 213.581,106.388 211.914,105.054 210.5,103.5 Z"/></g>
<g><path style="opacity:1" fill="#63616a" d="M 237.5,105.5 C 267.321,105.36 297.321,105.026 327.5,104.5C 327.5,107.5 327.5,110.5 327.5,113.5C 325.071,113.116 322.737,112.449 320.5,111.5C 320.5,112.5 320.5,113.5 320.5,114.5C 312.14,114.831 303.807,114.498 295.5,113.5C 296.325,112.614 297.325,112.281 298.5,112.5C 298.715,110.821 298.048,109.821 296.5,109.5C 291.373,108.336 286.04,107.669 280.5,107.5C 270.217,108.94 259.884,109.774 249.5,110C 250.737,110.232 251.737,110.732 252.5,111.5C 252.5,112.167 252.167,112.5 251.5,112.5C 251.565,112.062 251.399,111.728 251,111.5C 250.722,112.416 250.222,113.082 249.5,113.5C 248.618,109.228 246.284,107.561 242.5,108.5C 241.849,107.909 241.182,107.243 240.5,106.5C 239.212,108.299 239.212,109.965 240.5,111.5C 240.167,112.5 239.5,113.167 238.5,113.5C 238.5,112.5 238.5,111.5 238.5,110.5C 238.784,108.585 238.451,106.919 237.5,105.5 Z"/></g>
<g><path style="opacity:1" fill="#4c4b50" d="M -0.5,103.5 C 31.7534,103.729 63.7534,103.729 95.5,103.5C 95.5,104.167 95.5,104.833 95.5,105.5C 94.8333,105.5 94.1667,105.5 93.5,105.5C 92.6236,105.369 91.9569,105.702 91.5,106.5C 93.4875,110.669 92.1542,113.169 87.5,114C 88.4158,114.278 89.0825,114.778 89.5,115.5C 89.7135,117.144 89.3802,118.644 88.5,120C 90.6234,121.194 92.9568,121.86 95.5,122C 92.5285,122.794 89.5285,123.461 86.5,124C 87.6364,125.145 88.6364,126.312 89.5,127.5C 90.819,129.468 90.819,131.468 89.5,133.5C 92.4465,134.321 95.4465,134.821 98.5,135C 97.2004,136.579 97.5337,137.745 99.5,138.5C 99.6085,140.514 98.9418,142.18 97.5,143.5C 95.5,143.5 93.5,143.5 91.5,143.5C 91.719,142.325 91.3857,141.325 90.5,140.5C 86.1008,145.239 80.7675,146.572 74.5,144.5C 74.6107,143.883 74.944,143.383 75.5,143C 78.146,142.503 80.8127,142.336 83.5,142.5C 83.5,141.5 83.5,140.5 83.5,139.5C 80.1501,139.335 76.8168,139.502 73.5,140C 71.2232,142.596 68.5565,143.429 65.5,142.5C 66.8333,141.5 68.1667,140.5 69.5,139.5C 67.2573,138.526 64.924,138.192 62.5,138.5C 62.5,137.5 62.5,136.5 62.5,135.5C 66.5175,134.491 70.5175,134.491 74.5,135.5C 78.2134,135.078 81.88,134.411 85.5,133.5C 81.8651,132.394 78.1984,131.394 74.5,130.5C 77.6163,130.08 80.2829,129.08 82.5,127.5C 84.7487,125.669 85.9154,123.336 86,120.5C 85.5,120 85,119.5 84.5,119C 81.8734,118.731 79.5401,118.564 77.5,118.5C 76.6182,116.916 75.7848,115.249 75,113.5C 74.5172,114.448 74.3505,115.448 74.5,116.5C 72.5,116.5 70.5,116.5 68.5,116.5C 68.5,115.5 68.5,114.5 68.5,113.5C 65.333,113.4 62.333,114.067 59.5,115.5C 39.5463,114.396 19.5463,113.73 -0.5,113.5C -0.5,110.167 -0.5,106.833 -0.5,103.5 Z"/></g>
<g><path style="opacity:1" fill="#5d5a5e" d="M 150.5,103.5 C 165.167,103.5 179.833,103.5 194.5,103.5C 195.492,103.328 196.158,103.662 196.5,104.5C 192.818,104.335 189.152,104.501 185.5,105C 185.833,105.333 186.167,105.667 186.5,106C 182.814,106.559 179.147,107.226 175.5,108C 181.196,108.17 186.862,108.67 192.5,109.5C 191.572,110.768 191.405,112.101 192,113.5C 194.466,112.223 196.966,112.223 199.5,113.5C 197.577,114.308 195.577,114.808 193.5,115C 195.708,115.191 197.708,115.691 199.5,116.5C 198.934,120.806 198.268,121.139 197.5,117.5C 195.234,117.141 193.401,117.808 192,119.5C 191.5,118.5 191,117.5 190.5,116.5C 182.524,115.727 174.69,114.394 167,112.5C 166.667,113.5 166.333,114.5 166,115.5C 165.29,114.027 164.124,113.36 162.5,113.5C 159.903,113.279 159.903,112.779 162.5,112C 160.735,111.36 159.068,111.527 157.5,112.5C 156.395,110.7 157.061,109.533 159.5,109C 159.272,108.601 158.938,108.435 158.5,108.5C 159.684,107.312 159.684,106.145 158.5,105C 155.635,104.817 152.969,104.317 150.5,103.5 Z"/></g>
<g><path style="opacity:1" fill="#67666a" d="M 196.5,104.5 C 204.97,108.293 213.637,111.626 222.5,114.5C 223.29,115.401 224.29,116.068 225.5,116.5C 226.609,116.557 227.609,116.89 228.5,117.5C 227.905,120.113 227.071,120.113 226,117.5C 225.612,118.428 224.945,119.095 224,119.5C 222.584,118.427 221.25,118.427 220,119.5C 218.46,115.426 217.127,115.093 216,118.5C 210.951,116.938 205.451,116.272 199.5,116.5C 197.708,115.691 195.708,115.191 193.5,115C 195.577,114.808 197.577,114.308 199.5,113.5C 196.966,112.223 194.466,112.223 192,113.5C 191.405,112.101 191.572,110.768 192.5,109.5C 186.862,108.67 181.196,108.17 175.5,108C 179.147,107.226 182.814,106.559 186.5,106C 186.167,105.667 185.833,105.333 185.5,105C 189.152,104.501 192.818,104.335 196.5,104.5 Z"/></g>
<g><path style="opacity:1" fill="#18130d" d="M 95.5,109.5 C 100.833,109.833 106.167,110.167 111.5,110.5C 112.833,111.833 112.833,113.167 111.5,114.5C 105.824,114.666 100.157,114.499 94.5,114C 93.2568,112.184 93.5901,110.684 95.5,109.5 Z"/></g>
<g><path style="opacity:1" fill="#2b1d18" d="M 111.5,110.5 C 115.007,109.994 118.174,110.66 121,112.5C 122.011,111.663 123.178,111.33 124.5,111.5C 127.898,111.18 131.232,111.513 134.5,112.5C 133.271,113.281 131.938,113.781 130.5,114C 124.175,114.5 117.842,114.666 111.5,114.5C 112.833,113.167 112.833,111.833 111.5,110.5 Z"/></g>
<g><path style="opacity:1" fill="#3b271b" d="M 222.5,105.5 C 225.459,105.35 227.959,106.35 230,108.5C 230.333,108.167 230.667,107.833 231,107.5C 232,108.833 233,110.167 234,111.5C 234.717,110.956 235.217,110.289 235.5,109.5C 236.341,108.991 236.841,109.657 237,111.5C 237.383,110.944 237.883,110.611 238.5,110.5C 238.5,111.5 238.5,112.5 238.5,113.5C 237.25,113.577 236.417,114.244 236,115.5C 235.692,114.692 235.192,114.025 234.5,113.5C 231.566,114.977 228.566,115.977 225.5,116.5C 224.29,116.068 223.29,115.401 222.5,114.5C 225.833,114.5 229.167,114.5 232.5,114.5C 232.539,112.641 231.706,111.308 230,110.5C 229.184,111.823 228.017,112.489 226.5,112.5C 224.926,110.357 223.592,108.024 222.5,105.5 Z"/></g>
<g><path style="opacity:1" fill="#373430" d="M 93.5,105.5 C 96.8333,106.167 100.167,106.833 103.5,107.5C 102.5,107.5 101.5,107.5 100.5,107.5C 98.2188,107.077 96.5521,107.744 95.5,109.5C 93.5901,110.684 93.2568,112.184 94.5,114C 100.157,114.499 105.824,114.666 111.5,114.5C 112.833,115.167 114.167,115.833 115.5,116.5C 108.278,115.347 101.111,115.347 94,116.5C 93.6924,115.692 93.1924,115.025 92.5,114.5C 91.5832,115.127 90.5832,115.461 89.5,115.5C 89.0825,114.778 88.4158,114.278 87.5,114C 92.1542,113.169 93.4875,110.669 91.5,106.5C 91.9569,105.702 92.6236,105.369 93.5,105.5 Z"/></g>
<g><path style="opacity:1" fill="#4b4a52" d="M 296.5,109.5 C 295.286,110.626 294.286,111.959 293.5,113.5C 294.037,114.741 294.704,115.908 295.5,117C 295.355,117.772 295.022,118.439 294.5,119C 299.53,119.271 304.53,119.771 309.5,120.5C 315.134,119.425 320.801,119.258 326.5,120C 326.043,120.414 325.709,120.914 325.5,121.5C 321.833,122.167 318.167,122.833 314.5,123.5C 314.833,124.167 315.167,124.833 315.5,125.5C 318.107,126.318 320.774,126.818 323.5,127C 318.5,127.667 313.5,127.667 308.5,127C 308.833,126.667 309.167,126.333 309.5,126C 307.098,125.322 304.932,125.822 303,127.5C 296.936,125.588 297.102,124.088 303.5,123C 300.676,122.67 298.009,121.836 295.5,120.5C 292.254,121.124 291.921,122.291 294.5,124C 293.221,125.646 291.555,126.813 289.5,127.5C 296.564,128.671 303.564,129.171 310.5,129C 307.855,132.282 306.522,136.115 306.5,140.5C 308.144,140.286 309.644,140.62 311,141.5C 311.417,140.244 312.25,139.577 313.5,139.5C 313.881,140.931 314.881,141.764 316.5,142C 315.672,142.915 314.672,143.581 313.5,144C 318.123,143.774 322.79,143.607 327.5,143.5C 327.5,145.833 327.5,148.167 327.5,150.5C 325.586,149.815 323.586,149.315 321.5,149C 301.139,148.7 280.805,148.533 260.5,148.5C 259.917,146.452 259.917,144.619 260.5,143C 263.258,142.539 265.258,143.039 266.5,144.5C 271.251,144.392 272.251,142.559 269.5,139C 272.226,136.349 271.893,134.182 268.5,132.5C 267.5,132.5 266.5,132.5 265.5,132.5C 263.535,132.052 263.202,131.052 264.5,129.5C 266.198,130.681 267.865,130.681 269.5,129.5C 269.291,128.914 268.957,128.414 268.5,128C 261.206,127.787 260.872,126.787 267.5,125C 266.238,122.821 264.905,120.655 263.5,118.5C 264.539,116.469 266.205,115.136 268.5,114.5C 266.312,113.759 264.312,113.426 262.5,113.5C 264.108,112.682 265.775,112.015 267.5,111.5C 268.768,112.428 270.101,112.595 271.5,112C 271.167,111.667 270.833,111.333 270.5,111C 273.041,110.619 275.374,109.786 277.5,108.5C 279.5,109 281.5,109.5 283.5,110C 283.384,111.268 283.051,112.602 282.5,114C 286.166,114.823 287.833,113.323 287.5,109.5C 290.5,109.5 293.5,109.5 296.5,109.5 Z"/></g>
<g><path style="opacity:1" fill="#d9c8bc" d="M 252.5,111.5 C 255.971,112.633 257.971,114.967 258.5,118.5C 256.589,118.426 255.422,117.426 255,115.5C 254.667,116.167 254.333,116.833 254,117.5C 253.292,116.619 252.458,115.953 251.5,115.5C 251.5,114.5 251.5,113.5 251.5,112.5C 252.167,112.5 252.5,112.167 252.5,111.5 Z"/></g>
<g><path style="opacity:1" fill="#af9fa5" d="M 153.5,109.5 C 153.082,110.222 152.416,110.722 151.5,111C 152.938,111.219 154.271,111.719 155.5,112.5C 146.236,113.652 146.236,114.485 155.5,115C 153.08,115.29 150.746,115.79 148.5,116.5C 145.833,116.5 143.167,116.5 140.5,116.5C 141.263,115.732 142.263,115.232 143.5,115C 141.5,114.667 139.5,114.333 137.5,114C 139.608,113.64 141.608,112.973 143.5,112C 142.5,111.667 141.5,111.333 140.5,111C 144.73,109.71 149.064,109.21 153.5,109.5 Z"/></g>
<g><path style="opacity:1" fill="#211611" d="M 242.5,115.5 C 244.51,116.948 246.677,118.281 249,119.5C 249.333,118.5 249.667,117.5 250,116.5C 250.651,118.235 250.485,119.902 249.5,121.5C 251.139,122.322 252.805,122.989 254.5,123.5C 254.5,124.167 254.5,124.833 254.5,125.5C 250.486,125.666 246.486,125.499 242.5,125C 244.167,124.667 245.833,124.333 247.5,124C 247.018,122.992 246.852,121.825 247,120.5C 246.044,121.894 244.711,122.561 243,122.5C 238.105,120.967 233.271,119.3 228.5,117.5C 227.609,116.89 226.609,116.557 225.5,116.5C 228.566,115.977 231.566,114.977 234.5,113.5C 235.192,114.025 235.692,114.692 236,115.5C 236.417,114.244 237.25,113.577 238.5,113.5C 239.5,113.167 240.167,112.5 240.5,111.5C 241.629,111.882 242.295,113.215 242.5,115.5 Z"/></g>
<g><path style="opacity:1" fill="#9b816c" d="M 242.5,108.5 C 243.746,111.643 246.08,113.643 249.5,114.5C 249.189,115.478 248.522,116.145 247.5,116.5C 246.086,113.25 244.419,112.916 242.5,115.5C 242.295,113.215 241.629,111.882 240.5,111.5C 239.212,109.965 239.212,108.299 240.5,106.5C 241.182,107.243 241.849,107.909 242.5,108.5 Z"/></g>
<g><path style="opacity:1" fill="#452d1c" d="M 251.5,112.5 C 251.5,113.5 251.5,114.5 251.5,115.5C 251.238,116.978 251.571,118.311 252.5,119.5C 253.086,119.291 253.586,118.957 254,118.5C 255.085,119.736 255.918,121.069 256.5,122.5C 256.158,123.338 255.492,123.672 254.5,123.5C 252.805,122.989 251.139,122.322 249.5,121.5C 250.485,119.902 250.651,118.235 250,116.5C 249.667,117.5 249.333,118.5 249,119.5C 246.677,118.281 244.51,116.948 242.5,115.5C 244.419,112.916 246.086,113.25 247.5,116.5C 248.522,116.145 249.189,115.478 249.5,114.5C 249.5,114.167 249.5,113.833 249.5,113.5C 250.222,113.082 250.722,112.416 251,111.5C 251.399,111.728 251.565,112.062 251.5,112.5 Z"/></g>
<g><path style="opacity:1" fill="#3c3b3f" d="M -0.5,113.5 C 19.5463,113.73 39.5463,114.396 59.5,115.5C 62.333,114.067 65.333,113.4 68.5,113.5C 68.5,114.5 68.5,115.5 68.5,116.5C 70.5,116.5 72.5,116.5 74.5,116.5C 74.3505,115.448 74.5172,114.448 75,113.5C 75.7848,115.249 76.6182,116.916 77.5,118.5C 75.5588,118.869 73.7255,119.536 72,120.5C 71.3109,119.643 70.4776,118.977 69.5,118.5C 68.5,119.833 67.5,119.833 66.5,118.5C 65.3279,118.919 64.3279,119.585 63.5,120.5C 64.2739,121.711 65.1072,121.711 66,120.5C 66.6917,121.437 66.525,122.103 65.5,122.5C 64.5084,122.328 63.8417,122.662 63.5,123.5C 62.8333,123.5 62.5,123.167 62.5,122.5C 62.5,121.5 62.5,120.5 62.5,119.5C 41.5051,120.567 20.5051,120.567 -0.5,119.5C -0.5,117.5 -0.5,115.5 -0.5,113.5 Z"/></g>
<g><path style="opacity:1" fill="#422b1f" d="M 134.5,116.5 C 136.167,116.5 137.833,116.5 139.5,116.5C 141.229,120.294 139.895,122.128 135.5,122C 136.833,122.333 138.167,122.667 139.5,123C 138.692,123.308 138.025,123.808 137.5,124.5C 138.651,125.731 139.817,125.731 141,124.5C 141.308,125.308 141.808,125.975 142.5,126.5C 145.635,125.217 148.635,125.217 151.5,126.5C 149.901,126.232 148.568,126.566 147.5,127.5C 147.167,127.5 146.833,127.5 146.5,127.5C 144.5,127.5 142.5,127.5 140.5,127.5C 136.55,127.283 133.883,125.283 132.5,121.5C 133.95,120.15 134.617,118.484 134.5,116.5 Z"/></g>
<g><path style="opacity:1" fill="#866d6d" d="M 156.5,108.5 C 157.167,108.5 157.833,108.5 158.5,108.5C 158.938,108.435 159.272,108.601 159.5,109C 157.061,109.533 156.395,110.7 157.5,112.5C 156.991,113.341 157.657,113.841 159.5,114C 157.44,115.493 157.107,117.326 158.5,119.5C 159.192,118.975 159.692,118.308 160,117.5C 160.658,119.108 160.158,120.275 158.5,121C 159.784,121.684 160.951,121.517 162,120.5C 162.483,121.448 162.649,122.448 162.5,123.5C 158.19,124.08 153.857,124.414 149.5,124.5C 149.167,121.833 148.833,119.167 148.5,116.5C 150.746,115.79 153.08,115.29 155.5,115C 146.236,114.485 146.236,113.652 155.5,112.5C 154.271,111.719 152.938,111.219 151.5,111C 152.416,110.722 153.082,110.222 153.5,109.5C 154.791,109.737 155.791,109.404 156.5,108.5 Z"/></g>
<g><path style="opacity:1" fill="#816b5d" d="M 251.5,115.5 C 252.458,115.953 253.292,116.619 254,117.5C 254.333,116.833 254.667,116.167 255,115.5C 255.422,117.426 256.589,118.426 258.5,118.5C 258.938,118.435 259.272,118.601 259.5,119C 259.026,120.729 258.026,121.895 256.5,122.5C 255.918,121.069 255.085,119.736 254,118.5C 253.586,118.957 253.086,119.291 252.5,119.5C 251.571,118.311 251.238,116.978 251.5,115.5 Z"/></g>
<g><path style="opacity:1" fill="#17130f" d="M 115.5,116.5 C 121.833,116.5 128.167,116.5 134.5,116.5C 134.617,118.484 133.95,120.15 132.5,121.5C 133.883,125.283 136.55,127.283 140.5,127.5C 139.833,127.5 139.167,127.5 138.5,127.5C 137.5,127.5 136.5,127.5 135.5,127.5C 120.167,127.5 104.833,127.5 89.5,127.5C 88.6364,126.312 87.6364,125.145 86.5,124C 89.5285,123.461 92.5285,122.794 95.5,122C 92.9568,121.86 90.6234,121.194 88.5,120C 89.3802,118.644 89.7135,117.144 89.5,115.5C 90.5832,115.461 91.5832,115.127 92.5,114.5C 93.1924,115.025 93.6924,115.692 94,116.5C 101.111,115.347 108.278,115.347 115.5,116.5 Z"/></g>
<g><path style="opacity:1" fill="#59565c" d="M 296.5,109.5 C 293.5,109.5 290.5,109.5 287.5,109.5C 287.833,113.323 286.166,114.823 282.5,114C 283.051,112.602 283.384,111.268 283.5,110C 281.5,109.5 279.5,109 277.5,108.5C 275.374,109.786 273.041,110.619 270.5,111C 270.833,111.333 271.167,111.667 271.5,112C 270.101,112.595 268.768,112.428 267.5,111.5C 265.775,112.015 264.108,112.682 262.5,113.5C 264.312,113.426 266.312,113.759 268.5,114.5C 266.205,115.136 264.539,116.469 263.5,118.5C 264.905,120.655 266.238,122.821 267.5,125C 260.872,126.787 261.206,127.787 268.5,128C 268.957,128.414 269.291,128.914 269.5,129.5C 267.865,130.681 266.198,130.681 264.5,129.5C 263.202,131.052 263.535,132.052 265.5,132.5C 263.735,133.461 261.735,133.795 259.5,133.5C 259.795,131.265 259.461,129.265 258.5,127.5C 257.655,125.238 256.322,124.571 254.5,125.5C 254.5,124.833 254.5,124.167 254.5,123.5C 255.492,123.672 256.158,123.338 256.5,122.5C 258.026,121.895 259.026,120.729 259.5,119C 259.272,118.601 258.938,118.435 258.5,118.5C 257.971,114.967 255.971,112.633 252.5,111.5C 251.737,110.732 250.737,110.232 249.5,110C 259.884,109.774 270.217,108.94 280.5,107.5C 286.04,107.669 291.373,108.336 296.5,109.5 Z"/></g>
<g><path style="opacity:1" fill="#1a1a1a" d="M 77.5,118.5 C 79.5401,118.564 81.8734,118.731 84.5,119C 85,119.5 85.5,120 86,120.5C 85.9154,123.336 84.7487,125.669 82.5,127.5C 81.8333,127.167 81.1667,126.833 80.5,126.5C 78.9988,124.261 77.6655,124.261 76.5,126.5C 74.5658,126.099 73.0658,125.099 72,123.5C 70.5177,125.781 68.851,125.781 67,123.5C 65.8932,124.712 65.3932,124.379 65.5,122.5C 66.525,122.103 66.6917,121.437 66,120.5C 65.1072,121.711 64.2739,121.711 63.5,120.5C 64.3279,119.585 65.3279,118.919 66.5,118.5C 67.5,119.833 68.5,119.833 69.5,118.5C 70.4776,118.977 71.3109,119.643 72,120.5C 73.7255,119.536 75.5588,118.869 77.5,118.5 Z"/></g>
<g><path style="opacity:1" fill="#614741" d="M 162.5,113.5 C 162.413,116.598 162.913,116.932 164,114.5C 164.374,115.416 164.874,116.25 165.5,117C 163.581,120.472 163.581,123.805 165.5,127C 164.552,127.483 163.552,127.649 162.5,127.5C 160.735,126.539 158.735,126.205 156.5,126.5C 154.833,126.5 153.167,126.5 151.5,126.5C 148.635,125.217 145.635,125.217 142.5,126.5C 141.808,125.975 141.308,125.308 141,124.5C 139.817,125.731 138.651,125.731 137.5,124.5C 138.025,123.808 138.692,123.308 139.5,123C 138.167,122.667 136.833,122.333 135.5,122C 139.895,122.128 141.229,120.294 139.5,116.5C 139.833,116.5 140.167,116.5 140.5,116.5C 143.167,116.5 145.833,116.5 148.5,116.5C 148.833,119.167 149.167,121.833 149.5,124.5C 153.857,124.414 158.19,124.08 162.5,123.5C 162.649,122.448 162.483,121.448 162,120.5C 160.951,121.517 159.784,121.684 158.5,121C 160.158,120.275 160.658,119.108 160,117.5C 159.692,118.308 159.192,118.975 158.5,119.5C 157.107,117.326 157.44,115.493 159.5,114C 157.657,113.841 156.991,113.341 157.5,112.5C 159.068,111.527 160.735,111.36 162.5,112C 159.903,112.779 159.903,113.279 162.5,113.5 Z"/></g>
<g><path style="opacity:1" fill="#3c3b42" d="M 287.5,122.5 C 288.995,122.415 289.995,123.081 290.5,124.5C 288.887,125.427 287.221,126.261 285.5,127C 287.769,130.256 287.769,133.589 285.5,137C 287.769,138.558 290.102,138.724 292.5,137.5C 290.887,136.573 289.221,135.739 287.5,135C 287.833,134.667 288.167,134.333 288.5,134C 294.548,133.337 300.548,133.67 306.5,135C 304.269,136.147 301.935,137.147 299.5,138C 300.949,139.117 302.616,139.784 304.5,140C 304.167,140.333 303.833,140.667 303.5,141C 293.492,141.075 283.492,140.575 273.5,139.5C 275.5,138.833 277.5,138.167 279.5,137.5C 277.393,136.083 275.393,134.583 273.5,133C 275.24,131.173 276.907,131.34 278.5,133.5C 278.833,133 279.167,132.5 279.5,132C 276.977,130.089 276.977,128.255 279.5,126.5C 278.5,125.667 277.5,124.833 276.5,124C 280.356,123.823 284.023,123.323 287.5,122.5 Z"/></g>
<g><path style="opacity:1" fill="#252527" d="M -0.5,119.5 C 20.5051,120.567 41.5051,120.567 62.5,119.5C 62.5,120.5 62.5,121.5 62.5,122.5C 60.7853,121.343 58.7853,120.676 56.5,120.5C 43.1667,121.833 29.8333,121.833 16.5,120.5C 11.9516,121.659 7.28498,122.659 2.5,123.5C 4.07774,124.298 5.7444,124.798 7.5,125C 15.5,125.167 23.5,125.333 31.5,125.5C 42.0922,125.059 52.5922,125.059 63,125.5C 63.4643,124.906 63.631,124.239 63.5,123.5C 63.8417,122.662 64.5084,122.328 65.5,122.5C 65.3932,124.379 65.8932,124.712 67,123.5C 68.851,125.781 70.5177,125.781 72,123.5C 73.0658,125.099 74.5658,126.099 76.5,126.5C 77.6655,124.261 78.9988,124.261 80.5,126.5C 80.3893,127.117 80.056,127.617 79.5,128C 74.5298,128.607 69.6965,128.107 65,126.5C 62.9307,127.264 60.764,127.764 58.5,128C 38.8362,128.5 19.1695,128.667 -0.5,128.5C -0.5,125.5 -0.5,122.5 -0.5,119.5 Z"/></g>
<g><path style="opacity:1" fill="#161618" d="M 62.5,122.5 C 62.5,123.167 62.8333,123.5 63.5,123.5C 63.631,124.239 63.4643,124.906 63,125.5C 52.5922,125.059 42.0922,125.059 31.5,125.5C 23.5,125.333 15.5,125.167 7.5,125C 5.7444,124.798 4.07774,124.298 2.5,123.5C 7.28498,122.659 11.9516,121.659 16.5,120.5C 29.8333,121.833 43.1667,121.833 56.5,120.5C 58.7853,120.676 60.7853,121.343 62.5,122.5 Z"/></g>
<g><path style="opacity:1" fill="#404043" d="M 89.5,127.5 C 104.833,127.5 120.167,127.5 135.5,127.5C 135.918,128.222 136.584,128.722 137.5,129C 135.833,129.333 134.167,129.667 132.5,130C 133.624,130.249 134.624,130.749 135.5,131.5C 132.893,132.318 130.226,132.818 127.5,133C 128.938,133.219 130.271,133.719 131.5,134.5C 125.446,137.111 119.113,138.444 112.5,138.5C 110.833,138.5 109.167,138.5 107.5,138.5C 107.5,137.5 107.5,136.5 107.5,135.5C 106.167,135.5 104.833,135.5 103.5,135.5C 103.733,138.954 102.4,139.954 99.5,138.5C 97.5337,137.745 97.2004,136.579 98.5,135C 95.4465,134.821 92.4465,134.321 89.5,133.5C 90.819,131.468 90.819,129.468 89.5,127.5 Z"/></g>
<g><path style="opacity:1" fill="#54535b" d="M 296.5,109.5 C 298.048,109.821 298.715,110.821 298.5,112.5C 297.325,112.281 296.325,112.614 295.5,113.5C 303.807,114.498 312.14,114.831 320.5,114.5C 320.5,113.5 320.5,112.5 320.5,111.5C 322.737,112.449 325.071,113.116 327.5,113.5C 327.5,119.167 327.5,124.833 327.5,130.5C 323.008,130.269 318.675,130.936 314.5,132.5C 310.82,130.207 309.153,131.207 309.5,135.5C 312.898,135.18 316.232,135.513 319.5,136.5C 317.025,136.964 315.025,137.964 313.5,139.5C 312.25,139.577 311.417,140.244 311,141.5C 309.644,140.62 308.144,140.286 306.5,140.5C 306.522,136.115 307.855,132.282 310.5,129C 303.564,129.171 296.564,128.671 289.5,127.5C 291.555,126.813 293.221,125.646 294.5,124C 291.921,122.291 292.254,121.124 295.5,120.5C 298.009,121.836 300.676,122.67 303.5,123C 297.102,124.088 296.936,125.588 303,127.5C 304.932,125.822 307.098,125.322 309.5,126C 309.167,126.333 308.833,126.667 308.5,127C 313.5,127.667 318.5,127.667 323.5,127C 320.774,126.818 318.107,126.318 315.5,125.5C 315.167,124.833 314.833,124.167 314.5,123.5C 318.167,122.833 321.833,122.167 325.5,121.5C 325.709,120.914 326.043,120.414 326.5,120C 320.801,119.258 315.134,119.425 309.5,120.5C 304.53,119.771 299.53,119.271 294.5,119C 295.022,118.439 295.355,117.772 295.5,117C 294.704,115.908 294.037,114.741 293.5,113.5C 294.286,111.959 295.286,110.626 296.5,109.5 Z"/></g>
<g><path style="opacity:1" fill="#3c3b40" d="M 80.5,126.5 C 81.1667,126.833 81.8333,127.167 82.5,127.5C 80.2829,129.08 77.6163,130.08 74.5,130.5C 78.1984,131.394 81.8651,132.394 85.5,133.5C 81.88,134.411 78.2134,135.078 74.5,135.5C 70.5175,134.491 66.5175,134.491 62.5,135.5C 59.6085,134.597 56.6085,134.264 53.5,134.5C 53.5,133.167 53.5,131.833 53.5,130.5C 51.8008,130.34 50.1341,130.506 48.5,131C 49.9928,132.156 49.8261,132.99 48,133.5C 44.6963,130.821 41.5296,130.988 38.5,134C 33.3629,135.721 28.3629,135.554 23.5,133.5C 25.4401,132.472 27.4401,132.472 29.5,133.5C 31.1073,133.363 32.4406,132.696 33.5,131.5C 29.9553,130.209 26.4553,130.209 23,131.5C 20.2751,129.242 17.2751,128.909 14,130.5C 13.5439,131.744 14.0439,132.577 15.5,133C 10.1771,133.499 4.84372,133.666 -0.5,133.5C -0.5,131.833 -0.5,130.167 -0.5,128.5C 19.1695,128.667 38.8362,128.5 58.5,128C 60.764,127.764 62.9307,127.264 65,126.5C 69.6965,128.107 74.5298,128.607 79.5,128C 80.056,127.617 80.3893,127.117 80.5,126.5 Z"/></g>
<g><path style="opacity:1" fill="#4b4a4e" d="M 199.5,116.5 C 205.451,116.272 210.951,116.938 216,118.5C 217.127,115.093 218.46,115.426 220,119.5C 221.25,118.427 222.584,118.427 224,119.5C 224.945,119.095 225.612,118.428 226,117.5C 227.071,120.113 227.905,120.113 228.5,117.5C 233.271,119.3 238.105,120.967 243,122.5C 244.711,122.561 246.044,121.894 247,120.5C 246.852,121.825 247.018,122.992 247.5,124C 245.833,124.333 244.167,124.667 242.5,125C 246.486,125.499 250.486,125.666 254.5,125.5C 254.607,127.379 254.107,127.712 253,126.5C 252.25,127.126 251.416,127.626 250.5,128C 250.833,128.333 251.167,128.667 251.5,129C 245.833,129.333 240.167,129.667 234.5,130C 234.833,130.333 235.167,130.667 235.5,131C 233.563,131.122 232.23,131.955 231.5,133.5C 230.778,133.918 230.278,134.584 230,135.5C 228.333,134.833 226.667,134.167 225,133.5C 223.913,135.932 223.413,135.598 223.5,132.5C 225.288,132.785 226.955,132.452 228.5,131.5C 227.833,130.833 227.167,130.167 226.5,129.5C 228.078,128.702 229.744,128.202 231.5,128C 221.479,125.998 211.812,126.665 202.5,130C 203.328,130.915 204.328,131.581 205.5,132C 204.833,132.167 204.167,132.333 203.5,132.5C 199.746,130.523 195.746,129.523 191.5,129.5C 191.5,130.5 191.5,131.5 191.5,132.5C 178.507,133.163 178.84,133.997 192.5,135C 211.988,140.524 231.988,143.691 252.5,144.5C 253.398,145.158 254.398,145.824 255.5,146.5C 243.488,147.206 231.488,147.873 219.5,148.5C 218.263,148.444 217.263,147.944 216.5,147C 204.299,147.235 192.299,145.902 180.5,143C 178.845,141.556 178.178,139.722 178.5,137.5C 177.5,137.5 176.5,137.5 175.5,137.5C 175.649,138.552 175.483,139.552 175,140.5C 168.883,139.724 162.717,139.057 156.5,138.5C 156.5,137.167 156.5,135.833 156.5,134.5C 158.492,132.173 160.492,129.84 162.5,127.5C 163.552,127.649 164.552,127.483 165.5,127C 163.581,123.805 163.581,120.472 165.5,117C 164.874,116.25 164.374,115.416 164,114.5C 162.913,116.932 162.413,116.598 162.5,113.5C 164.124,113.36 165.29,114.027 166,115.5C 166.333,114.5 166.667,113.5 167,112.5C 174.69,114.394 182.524,115.727 190.5,116.5C 191,117.5 191.5,118.5 192,119.5C 193.401,117.808 195.234,117.141 197.5,117.5C 198.268,121.139 198.934,120.806 199.5,116.5 Z"/></g>
<g><path style="opacity:1" fill="#252427" d="M 176.5,122.5 C 197.411,122.635 219.078,123.468 241.5,125C 216.582,125.244 192.249,125.411 168.5,125.5C 167.5,125 166.5,124.5 165.5,124C 169.356,123.823 173.023,123.323 176.5,122.5 Z"/></g>
<g><path style="opacity:1" fill="#6b6870" d="M 156.5,126.5 C 158.735,126.205 160.735,126.539 162.5,127.5C 160.492,129.84 158.492,132.173 156.5,134.5C 154.766,136.683 153.766,139.35 153.5,142.5C 151.317,144.571 148.984,146.071 146.5,147C 145.185,140.5 145.185,134 146.5,127.5C 146.833,127.5 147.167,127.5 147.5,127.5C 147.5,131.833 147.5,136.167 147.5,140.5C 148.833,140.5 150.167,140.5 151.5,140.5C 152.411,136.543 153.411,132.543 154.5,128.5C 156.993,128.869 157.66,128.203 156.5,126.5 Z"/></g>
<g><path style="opacity:1" fill="#5e5d62" d="M 231.5,133.5 C 234.813,134.045 238.146,134.545 241.5,135C 239.5,135.333 237.5,135.667 235.5,136C 238.264,136.532 240.93,137.366 243.5,138.5C 243.723,139.967 244.056,141.467 244.5,143C 246.326,143.292 248.159,143.125 250,142.5C 251.376,142.684 252.209,143.351 252.5,144.5C 231.988,143.691 211.988,140.524 192.5,135C 178.84,133.997 178.507,133.163 191.5,132.5C 191.5,131.5 191.5,130.5 191.5,129.5C 195.746,129.523 199.746,130.523 203.5,132.5C 204.167,132.333 204.833,132.167 205.5,132C 204.328,131.581 203.328,130.915 202.5,130C 211.812,126.665 221.479,125.998 231.5,128C 229.744,128.202 228.078,128.702 226.5,129.5C 227.167,130.167 227.833,130.833 228.5,131.5C 226.955,132.452 225.288,132.785 223.5,132.5C 223.413,135.598 223.913,135.932 225,133.5C 226.667,134.167 228.333,134.833 230,135.5C 230.278,134.584 230.778,133.918 231.5,133.5 Z"/></g>
<g><path style="opacity:1" fill="#837e89" d="M 151.5,126.5 C 153.167,126.5 154.833,126.5 156.5,126.5C 157.66,128.203 156.993,128.869 154.5,128.5C 153.411,132.543 152.411,136.543 151.5,140.5C 150.167,140.5 148.833,140.5 147.5,140.5C 147.5,136.167 147.5,131.833 147.5,127.5C 148.568,126.566 149.901,126.232 151.5,126.5 Z"/></g>
<g><path style="opacity:1" fill="#62626b" d="M 327.5,130.5 C 327.5,134.833 327.5,139.167 327.5,143.5C 322.79,143.607 318.123,143.774 313.5,144C 314.672,143.581 315.672,142.915 316.5,142C 314.881,141.764 313.881,140.931 313.5,139.5C 315.025,137.964 317.025,136.964 319.5,136.5C 316.232,135.513 312.898,135.18 309.5,135.5C 309.153,131.207 310.82,130.207 314.5,132.5C 318.675,130.936 323.008,130.269 327.5,130.5 Z"/></g>
<g><path style="opacity:1" fill="#47464b" d="M 62.5,135.5 C 62.5,136.5 62.5,137.5 62.5,138.5C 64.924,138.192 67.2573,138.526 69.5,139.5C 68.1667,140.5 66.8333,141.5 65.5,142.5C 68.5565,143.429 71.2232,142.596 73.5,140C 76.8168,139.502 80.1501,139.335 83.5,139.5C 83.5,140.5 83.5,141.5 83.5,142.5C 80.8127,142.336 78.146,142.503 75.5,143C 74.944,143.383 74.6107,143.883 74.5,144.5C 65.6324,146.214 56.6324,146.88 47.5,146.5C 47.5,145.5 47.5,144.5 47.5,143.5C 50.2469,143.813 52.9135,143.48 55.5,142.5C 49.2532,140.826 42.9199,140.326 36.5,141C 36.0426,141.414 35.7093,141.914 35.5,142.5C 25.4768,144.669 15.4768,146.503 5.5,148C 6.646,148.645 7.646,149.478 8.5,150.5C 11.5632,148.922 14.8965,148.256 18.5,148.5C 27.1809,149.682 35.8476,149.682 44.5,148.5C 44.5,149.5 44.5,150.5 44.5,151.5C 46.5273,151.662 48.5273,151.495 50.5,151C 49.4757,149.633 49.9757,148.8 52,148.5C 53.1442,148.911 54.3109,149.244 55.5,149.5C 67.4883,148.789 79.4883,148.122 91.5,147.5C 95.0631,147.846 98.5631,148.513 102,149.5C 102.5,149.167 103,148.833 103.5,148.5C 102.271,147.719 100.938,147.219 99.5,147C 98.9152,145.698 98.2485,144.531 97.5,143.5C 98.9418,142.18 99.6085,140.514 99.5,138.5C 102.4,139.954 103.733,138.954 103.5,135.5C 104.833,135.5 106.167,135.5 107.5,135.5C 107.5,136.5 107.5,137.5 107.5,138.5C 109.167,138.5 110.833,138.5 112.5,138.5C 109.124,140.082 105.458,140.749 101.5,140.5C 101.5,141.5 101.5,142.5 101.5,143.5C 108.225,144.197 114.892,144.53 121.5,144.5C 118.45,146.057 115.283,147.391 112,148.5C 110.116,146.424 107.949,146.09 105.5,147.5C 107.023,149.283 109.023,149.949 111.5,149.5C 111.5,150.833 111.5,152.167 111.5,153.5C 74.1667,153.5 36.8333,153.5 -0.5,153.5C -0.5,146.833 -0.5,140.167 -0.5,133.5C 4.84372,133.666 10.1771,133.499 15.5,133C 14.0439,132.577 13.5439,131.744 14,130.5C 17.2751,128.909 20.2751,129.242 23,131.5C 26.4553,130.209 29.9553,130.209 33.5,131.5C 32.4406,132.696 31.1073,133.363 29.5,133.5C 27.4401,132.472 25.4401,132.472 23.5,133.5C 28.3629,135.554 33.3629,135.721 38.5,134C 41.5296,130.988 44.6963,130.821 48,133.5C 49.8261,132.99 49.9928,132.156 48.5,131C 50.1341,130.506 51.8008,130.34 53.5,130.5C 53.5,131.833 53.5,133.167 53.5,134.5C 56.6085,134.264 59.6085,134.597 62.5,135.5 Z"/></g>
<g><path style="opacity:1" fill="#504e52" d="M 135.5,127.5 C 136.5,127.5 137.5,127.5 138.5,127.5C 139.341,129.379 139.675,131.379 139.5,133.5C 140.873,133.343 142.207,133.51 143.5,134C 142.327,138.006 139.994,141.172 136.5,143.5C 134.088,142.182 131.754,142.349 129.5,144C 132.911,144.909 136.245,145.909 139.5,147C 133.472,147.17 127.472,147.67 121.5,148.5C 122.952,149.94 123.952,151.606 124.5,153.5C 120.167,153.5 115.833,153.5 111.5,153.5C 111.5,152.167 111.5,150.833 111.5,149.5C 109.023,149.949 107.023,149.283 105.5,147.5C 107.949,146.09 110.116,146.424 112,148.5C 115.283,147.391 118.45,146.057 121.5,144.5C 114.892,144.53 108.225,144.197 101.5,143.5C 101.5,142.5 101.5,141.5 101.5,140.5C 105.458,140.749 109.124,140.082 112.5,138.5C 119.113,138.444 125.446,137.111 131.5,134.5C 130.271,133.719 128.938,133.219 127.5,133C 130.226,132.818 132.893,132.318 135.5,131.5C 134.624,130.749 133.624,130.249 132.5,130C 134.167,129.667 135.833,129.333 137.5,129C 136.584,128.722 135.918,128.222 135.5,127.5 Z"/></g>
<g><path style="opacity:1" fill="#6b696f" d="M 258.5,127.5 C 259.461,129.265 259.795,131.265 259.5,133.5C 261.735,133.795 263.735,133.461 265.5,132.5C 266.5,132.5 267.5,132.5 268.5,132.5C 268.5,133.5 268.5,134.5 268.5,135.5C 265.5,135.5 262.5,135.5 259.5,135.5C 258.634,138.167 257.634,140.833 256.5,143.5C 255.264,144.246 253.93,144.579 252.5,144.5C 252.209,143.351 251.376,142.684 250,142.5C 248.159,143.125 246.326,143.292 244.5,143C 244.056,141.467 243.723,139.967 243.5,138.5C 240.93,137.366 238.264,136.532 235.5,136C 237.5,135.667 239.5,135.333 241.5,135C 238.146,134.545 234.813,134.045 231.5,133.5C 232.23,131.955 233.563,131.122 235.5,131C 235.167,130.667 234.833,130.333 234.5,130C 240.167,129.667 245.833,129.333 251.5,129C 251.167,128.667 250.833,128.333 250.5,128C 251.416,127.626 252.25,127.126 253,126.5C 254.107,127.712 254.607,127.379 254.5,125.5C 256.322,124.571 257.655,125.238 258.5,127.5 Z"/></g>
<g><path style="opacity:1" fill="#88868c" d="M 258.5,127.5 C 259.916,133.721 257.583,137.054 251.5,137.5C 249.99,131.357 252.323,128.024 258.5,127.5 Z"/></g>
<g><path style="opacity:1" fill="#535257" d="M 74.5,144.5 C 80.7675,146.572 86.1008,145.239 90.5,140.5C 91.3857,141.325 91.719,142.325 91.5,143.5C 93.5,143.5 95.5,143.5 97.5,143.5C 98.2485,144.531 98.9152,145.698 99.5,147C 100.938,147.219 102.271,147.719 103.5,148.5C 103,148.833 102.5,149.167 102,149.5C 98.5631,148.513 95.0631,147.846 91.5,147.5C 79.4883,148.122 67.4883,148.789 55.5,149.5C 54.3109,149.244 53.1442,148.911 52,148.5C 49.9757,148.8 49.4757,149.633 50.5,151C 48.5273,151.495 46.5273,151.662 44.5,151.5C 44.5,150.5 44.5,149.5 44.5,148.5C 35.8476,149.682 27.1809,149.682 18.5,148.5C 14.8965,148.256 11.5632,148.922 8.5,150.5C 7.646,149.478 6.646,148.645 5.5,148C 15.4768,146.503 25.4768,144.669 35.5,142.5C 35.7093,141.914 36.0426,141.414 36.5,141C 42.9199,140.326 49.2532,140.826 55.5,142.5C 52.9135,143.48 50.2469,143.813 47.5,143.5C 47.5,144.5 47.5,145.5 47.5,146.5C 56.6324,146.88 65.6324,146.214 74.5,144.5 Z"/></g>
<g><path style="opacity:1" fill="#5c5b61" d="M 138.5,127.5 C 139.167,127.5 139.833,127.5 140.5,127.5C 142.5,127.5 144.5,127.5 146.5,127.5C 145.185,134 145.185,140.5 146.5,147C 148.984,146.071 151.317,144.571 153.5,142.5C 153.766,139.35 154.766,136.683 156.5,134.5C 156.5,135.833 156.5,137.167 156.5,138.5C 162.717,139.057 168.883,139.724 175,140.5C 175.483,139.552 175.649,138.552 175.5,137.5C 176.5,137.5 177.5,137.5 178.5,137.5C 178.178,139.722 178.845,141.556 180.5,143C 192.299,145.902 204.299,147.235 216.5,147C 217.263,147.944 218.263,148.444 219.5,148.5C 231.488,147.873 243.488,147.206 255.5,146.5C 254.398,145.824 253.398,145.158 252.5,144.5C 253.93,144.579 255.264,144.246 256.5,143.5C 257.634,140.833 258.634,138.167 259.5,135.5C 262.5,135.5 265.5,135.5 268.5,135.5C 268.5,134.5 268.5,133.5 268.5,132.5C 271.893,134.182 272.226,136.349 269.5,139C 272.251,142.559 271.251,144.392 266.5,144.5C 265.258,143.039 263.258,142.539 260.5,143C 259.917,144.619 259.917,146.452 260.5,148.5C 280.805,148.533 301.139,148.7 321.5,149C 323.586,149.315 325.586,149.815 327.5,150.5C 327.5,151.5 327.5,152.5 327.5,153.5C 259.833,153.5 192.167,153.5 124.5,153.5C 123.952,151.606 122.952,149.94 121.5,148.5C 127.472,147.67 133.472,147.17 139.5,147C 136.245,145.909 132.911,144.909 129.5,144C 131.754,142.349 134.088,142.182 136.5,143.5C 139.994,141.172 142.327,138.006 143.5,134C 142.207,133.51 140.873,133.343 139.5,133.5C 139.675,131.379 139.341,129.379 138.5,127.5 Z"/></g>
</svg>
