<svg xmlns="http://www.w3.org/2000/svg" version="1.1" xmlns:xlink="http://www.w3.org/1999/xlink" width="512" height="512" x="0" y="0" viewBox="0 0 66 66" style="enable-background:new 0 0 512 512" xml:space="preserve" class=""><g transform="matrix(0.5099999999999993,0,0,0.5099999999999993,16.198174827098853,16.170000000000062)"><path d="M51.2 57.4H19.7c-2.8 0-5.1-2.3-5.1-5.1V24.2c0-.6.4-1 1-1s1 .4 1 1v28.1c0 1.7 1.4 3.1 3.1 3.1h31.5c1.7 0 3.1-1.4 3.1-3.1V6.1c0-1.7-1.4-3.1-3.1-3.1H19.7c-1.7 0-3.1 1.4-3.1 3.1 0 .6-.4 1-1 1s-1-.4-1-1c0-2.8 2.3-5.1 5.1-5.1h31.5c2.8 0 5.1 2.3 5.1 5.1v46.2c0 2.8-2.3 5.1-5.1 5.1z" fill="#0d369f" opacity="1" data-original="#000000" class=""></path><path d="M54.4 65h-.5l-31.4-2.9c-2.8-.3-4.9-2.8-4.6-5.6v-.1c0-.3.1-.6.4-.8.2-.2.5-.3.8-.2.2 0 .4.1.6.1h31.5c1.7 0 3.1-1.4 3.1-3.1V9.5c0-.3.1-.5.3-.7s.5-.3.8-.3l3.7.3c1.4.1 2.6.8 3.5 1.8.9 1.1 1.3 2.4 1.2 3.7l-4.2 46c-.1 1.4-.8 2.6-1.8 3.5-1.1.8-2.3 1.2-3.4 1.2zm-34.5-7.6c.2 1.4 1.4 2.5 2.8 2.7L54.1 63c.8.1 1.6-.2 2.3-.7.6-.5 1-1.3 1.1-2.1l4.2-46c.1-.8-.2-1.6-.7-2.3-.5-.6-1.3-1-2.1-1.1l-2.6-.2v41.8c0 2.8-2.3 5.1-5.1 5.1H19.9zM6.3 65c-.4 0-.7-.2-.9-.6l-2.9-6.3c-.2-.5 0-1.1.5-1.3s1.1 0 1.3.5l2 4.4 2-4.4c.2-.5.8-.7 1.3-.5s.7.8.5 1.3l-2.9 6.3c-.2.4-.5.6-.9.6z" fill="#0d369f" opacity="1" data-original="#000000" class=""></path><path d="M9.3 58.7h-6c-.6 0-1-.4-1-1V30.4c0-1 .6-2 1.6-2.3 1.6-.6 3.2-.6 4.9 0 .9.4 1.6 1.3 1.6 2.3v27.3c-.1.5-.6 1-1.1 1zm-5-2h4V30.4c0-.2-.1-.4-.3-.5-1.1-.4-2.3-.5-3.4 0-.2.1-.3.3-.3.5z" fill="#0d369f" opacity="1" data-original="#000000" class=""></path><path d="M9.3 33.7h-6c-.6 0-1-.4-1-1v-2.3c0-1 .6-2 1.6-2.3 1.6-.6 3.2-.6 4.9 0 .9.4 1.6 1.3 1.6 2.3v2.3c-.1.6-.6 1-1.1 1zm-5-2h4v-1.3c0-.2-.1-.4-.3-.5-1.1-.4-2.3-.4-3.4 0-.2.1-.3.3-.3.5zM33.9 33.4H20.5c-.6 0-1-.4-1-1v-1.6c0-1.9 1.5-3.4 3.4-3.4h8.5c1.9 0 3.4 1.5 3.4 3.4v1.6c.1.6-.3 1-.9 1zm-12.4-2h11.4v-.6c0-.8-.6-1.4-1.4-1.4H23c-.8 0-1.4.6-1.4 1.4v.6zM34.6 22.6c-.3 0-.5-.1-.7-.3l-5.1-5.1c-.4-.4-.4-1 0-1.4l7-7c.4-.4 1-.4 1.4 0l5.1 5.1c.2.2.3.4.3.7s-.1.5-.3.7l-7 7c-.2.2-.5.3-.7.3zm-3.8-6.1 3.7 3.7 5.6-5.6-3.7-3.7z" fill="#0d369f" opacity="1" data-original="#000000" class=""></path><path d="M33.4 25.4c-.6 0-1.3-.2-1.8-.7l-5.2-5.2c-1-1-1-2.6 0-3.6l.2-.2c1-1 2.6-1 3.6 0l5.2 5.2c1 1 1 2.6 0 3.6l-.2.2c-.5.5-1.2.7-1.8.7zM28.3 17c-.1 0-.3.1-.4.2l-.2.2c-.2.2-.2.5 0 .8l5.2 5.2c.2.2.5.2.8 0l.2-.2c.2-.2.2-.5 0-.8l-5.2-5.2c-.1-.2-.3-.2-.4-.2zM42.7 16.1c-.6 0-1.3-.2-1.8-.7l-5.2-5.2c-.5-.5-.7-1.1-.7-1.8s.3-1.3.7-1.8l.2-.2c1-1 2.6-1 3.6 0l5.2 5.2c1 1 1 2.6 0 3.6l-.2.2c-.5.5-1.2.7-1.8.7zm-5.1-8.4c-.1 0-.3.1-.4.2l-.1.1c-.1.1-.2.2-.2.4s.1.3.2.4l5.2 5.2c.2.2.5.2.8 0l.2-.2c.2-.2.2-.5 0-.8L38 7.8c-.1-.1-.3-.1-.4-.1zM48 31.4c-1 0-1.8-.4-2.4-1.1l-9.5-10.2c-.4-.4-.4-1 0-1.4l2.5-2.5c.4-.4 1-.4 1.4 0l10.2 9.5c.7.6 1 1.5 1.1 2.4s-.3 1.8-1 2.4c-.6.5-1.4.9-2.3.9zm-9.8-12 8.8 9.5c.2.3.6.4.9.4.4 0 .7-.1.9-.4.3-.3.4-.6.4-.9 0-.4-.2-.7-.4-.9l-9.5-8.8zM22.3 43.8c-.3 0-.5-.1-.7-.3l-1.7-1.7c-.4-.4-.4-1 0-1.4s1-.4 1.4 0l1 1 4.4-4.4c.4-.4 1-.4 1.4 0s.4 1 0 1.4L23 43.5c-.2.2-.4.3-.7.3zM22.3 51.3c-.3 0-.5-.1-.7-.3l-1.7-1.7c-.4-.4-.4-1 0-1.4s1-.4 1.4 0l1 1 4.4-4.5c.4-.4 1-.4 1.4 0s.4 1 0 1.4L23 51c-.2.2-.4.3-.7.3zM50.2 40.5H32.3c-.6 0-1-.4-1-1s.4-1 1-1h17.9c.6 0 1 .4 1 1s-.4 1-1 1zM50.2 48.8H32.3c-.6 0-1-.4-1-1s.4-1 1-1h17.9c.6 0 1 .4 1 1s-.4 1-1 1zM12.8 25.7C7 25.7 2.3 20.9 2.3 15.1S7 4.6 12.8 4.6s10.5 4.7 10.5 10.5-4.7 10.6-10.5 10.6zm0-19.1c-4.7 0-8.5 3.8-8.5 8.5s3.8 8.5 8.5 8.5 8.5-3.8 8.5-8.5-3.8-8.5-8.5-8.5z" fill="#0d369f" opacity="1" data-original="#000000" class=""></path><path d="M10.8 20.8c-.7 0-1.4-.3-1.9-.8l-2-2c-1-1-1-2.8 0-3.8s2.8-1 3.8 0l.1.1 3.6-3.6c1-1 2.8-1 3.8 0s1 2.8 0 3.8L12.7 20c-.5.5-1.2.8-1.9.8zm-2-5.3c-.2 0-.4.1-.5.2-.3.3-.3.7 0 1l2 2c.3.3.7.3 1 0l5.5-5.5c.3-.3.3-.7 0-1s-.7-.3-1 0l-4.3 4.3c-.2.2-.4.3-.7.3-.3 0-.5-.1-.7-.3l-.8-.8c-.1-.1-.3-.2-.5-.2z" fill="#0d369f" opacity="1" data-original="#000000" class=""></path></g></svg>