<svg xmlns="http://www.w3.org/2000/svg" xmlns:xlink="http://www.w3.org/1999/xlink" width="500" zoomAndPan="magnify" viewBox="0 0 375 374.999991" height="500" preserveAspectRatio="xMidYMid meet" version="1.0"><defs><g/><clipPath id="4c30aab48f"><path d="M 102.449219 69.160156 L 278.699219 69.160156 L 278.699219 245.410156 L 102.449219 245.410156 Z M 102.449219 69.160156 " clip-rule="nonzero"/></clipPath><clipPath id="e4b9d45e8f"><path d="M 308.277344 69.160156 L 326.277344 69.160156 L 326.277344 87.160156 L 308.277344 87.160156 Z M 308.277344 69.160156 " clip-rule="nonzero"/></clipPath></defs><rect x="-37.5" width="450" fill="#ffffff" y="-37.499999" height="449.999989" fill-opacity="1"/><rect x="-37.5" width="450" fill="#000000" y="-37.499999" height="449.999989" fill-opacity="1"/><g clip-path="url(#4c30aab48f)"><path fill="#ffffff" d="M 275.265625 186.921875 C 273.417969 186.921875 271.917969 185.421875 271.917969 183.574219 L 271.917969 80.921875 L 215.113281 137.726562 C 213.808594 139.03125 211.6875 139.03125 210.382812 137.726562 C 209.074219 136.417969 209.074219 134.300781 210.382812 132.992188 L 272.898438 70.476562 C 273.855469 69.515625 275.296875 69.230469 276.546875 69.75 C 277.796875 70.265625 278.613281 71.488281 278.613281 72.839844 L 278.613281 183.574219 C 278.613281 185.421875 277.113281 186.921875 275.265625 186.921875 Z M 106.195312 245.257812 C 104.347656 245.257812 102.847656 243.761719 102.847656 241.910156 L 102.847656 125.238281 C 102.847656 123.886719 103.664062 122.664062 104.914062 122.148438 C 106.164062 121.628906 107.605469 121.914062 108.5625 122.871094 L 166.898438 181.210938 C 168.203125 182.515625 168.203125 184.636719 166.898438 185.941406 C 165.589844 187.25 163.472656 187.25 162.164062 185.941406 L 109.542969 133.316406 L 109.542969 241.910156 C 109.542969 243.761719 108.042969 245.257812 106.195312 245.257812 Z M 275.265625 245.257812 C 274.410156 245.257812 273.554688 244.929688 272.898438 244.277344 L 103.828125 75.207031 C 102.523438 73.902344 102.523438 71.78125 103.828125 70.476562 C 105.136719 69.167969 107.253906 69.167969 108.5625 70.476562 L 277.632812 239.546875 C 278.941406 240.851562 278.941406 242.972656 277.632812 244.277344 C 276.976562 244.929688 276.121094 245.257812 275.265625 245.257812 " fill-opacity="1" fill-rule="nonzero"/></g><g fill="#ffffff" fill-opacity="1"><g transform="translate(100.712066, 287.934005)"><g><path d="M 13.40625 0 L 10.90625 0 L 10.890625 -7.265625 L 8.203125 -1.125 L 6.34375 -1.125 L 3.65625 -7.265625 L 3.65625 0 L 1.125 0 L 1.125 -11.203125 L 4.234375 -11.203125 L 7.265625 -4.546875 L 10.3125 -11.203125 L 13.40625 -11.203125 Z M 13.40625 0 "/></g></g></g><g fill="#ffffff" fill-opacity="1"><g transform="translate(121.649574, 287.934005)"><g><path d="M 11.1875 -11.1875 L 11.1875 -4.703125 C 11.1875 -3.222656 10.726562 -2.046875 9.8125 -1.171875 C 8.894531 -0.304688 7.65625 0.125 6.09375 0.125 C 4.507812 0.125 3.25 -0.304688 2.3125 -1.171875 C 1.382812 -2.046875 0.921875 -3.222656 0.921875 -4.703125 L 0.921875 -11.1875 L 3.765625 -11.1875 L 3.765625 -4.703125 C 3.765625 -3.953125 3.976562 -3.351562 4.40625 -2.90625 C 4.84375 -2.46875 5.410156 -2.25 6.109375 -2.25 C 6.785156 -2.25 7.328125 -2.46875 7.734375 -2.90625 C 8.148438 -3.34375 8.359375 -3.941406 8.359375 -4.703125 L 8.359375 -11.1875 Z M 11.1875 -11.1875 "/></g></g></g><g fill="#ffffff" fill-opacity="1"><g transform="translate(140.158102, 287.934005)"><g><path d="M 11.4375 0 L 8.9375 0 L 3.78125 -6.890625 L 3.78125 0 L 1.125 0 L 1.125 -11.1875 L 3.625 -11.1875 L 8.796875 -4.28125 L 8.796875 -11.1875 L 11.4375 -11.1875 Z M 11.4375 0 "/></g></g></g><g fill="#ffffff" fill-opacity="1"><g transform="translate(159.114081, 287.934005)"><g><path d="M 6.890625 -3.609375 L 6.890625 0 L 4.0625 0 L 4.0625 -3.53125 L -0.078125 -11.1875 L 2.765625 -11.1875 L 5.46875 -6.3125 L 8.109375 -11.1875 L 10.953125 -11.1875 Z M 6.890625 -3.609375 "/></g></g></g><g fill="#ffffff" fill-opacity="1"><g transform="translate(176.376166, 287.934005)"><g><path d="M 8.546875 -2.0625 L 3.65625 -2.0625 L 2.84375 0 L -0.078125 0 L 4.75 -11.1875 L 7.671875 -11.1875 L 12.390625 0 L 9.34375 0 Z M 7.71875 -4.21875 L 6.125 -8.359375 L 4.484375 -4.21875 Z M 7.71875 -4.21875 "/></g></g></g><g fill="#ffffff" fill-opacity="1"><g transform="translate(195.076459, 287.934005)"><g><path d="M 11.4375 0 L 8.9375 0 L 3.78125 -6.890625 L 3.78125 0 L 1.125 0 L 1.125 -11.1875 L 3.625 -11.1875 L 8.796875 -4.28125 L 8.796875 -11.1875 L 11.4375 -11.1875 Z M 11.4375 0 "/></g></g></g><g fill="#ffffff" fill-opacity="1"><g transform="translate(214.032434, 287.934005)"><g><path d="M 8.546875 -5.6875 L 11.015625 -5.6875 L 11.015625 -1.328125 C 10.410156 -0.898438 9.675781 -0.550781 8.8125 -0.28125 C 7.957031 -0.0078125 7.140625 0.125 6.359375 0.125 C 4.648438 0.125 3.226562 -0.421875 2.09375 -1.515625 C 0.957031 -2.609375 0.390625 -3.96875 0.390625 -5.59375 C 0.390625 -7.21875 0.972656 -8.570312 2.140625 -9.65625 C 3.316406 -10.738281 4.785156 -11.28125 6.546875 -11.28125 C 7.378906 -11.28125 8.207031 -11.128906 9.03125 -10.828125 C 9.851562 -10.535156 10.550781 -10.132812 11.125 -9.625 L 9.53125 -7.6875 C 9.125 -8.0625 8.65625 -8.359375 8.125 -8.578125 C 7.59375 -8.796875 7.0625 -8.90625 6.53125 -8.90625 C 5.613281 -8.90625 4.84375 -8.585938 4.21875 -7.953125 C 3.601562 -7.316406 3.296875 -6.53125 3.296875 -5.59375 C 3.296875 -4.644531 3.609375 -3.847656 4.234375 -3.203125 C 4.859375 -2.566406 5.632812 -2.25 6.5625 -2.25 C 7.164062 -2.25 7.828125 -2.429688 8.546875 -2.796875 Z M 8.546875 -5.6875 "/></g></g></g><g fill="#ffffff" fill-opacity="1"><g transform="translate(232.301268, 287.934005)"><g><path d="M 8.546875 -2.0625 L 3.65625 -2.0625 L 2.84375 0 L -0.078125 0 L 4.75 -11.1875 L 7.671875 -11.1875 L 12.390625 0 L 9.34375 0 Z M 7.71875 -4.21875 L 6.125 -8.359375 L 4.484375 -4.21875 Z M 7.71875 -4.21875 "/></g></g></g><g fill="#ffffff" fill-opacity="1"><g transform="translate(251.001555, 287.934005)"><g><path d="M 11.4375 0 L 8.9375 0 L 3.78125 -6.890625 L 3.78125 0 L 1.125 0 L 1.125 -11.1875 L 3.625 -11.1875 L 8.796875 -4.28125 L 8.796875 -11.1875 L 11.4375 -11.1875 Z M 11.4375 0 "/></g></g></g><g fill="#ffffff" fill-opacity="1"><g transform="translate(269.957529, 287.934005)"><g><path d="M 9.875 -8.953125 L 3.96875 -8.953125 L 3.96875 -6.734375 L 9.296875 -6.734375 L 9.296875 -4.484375 L 3.96875 -4.484375 L 3.96875 -2.234375 L 10.046875 -2.234375 L 10.046875 0 L 1.125 0 L 1.125 -11.1875 L 9.875 -11.1875 Z M 9.875 -8.953125 "/></g></g></g><g fill="#ffffff" fill-opacity="1"><g transform="translate(155.531558, 303.351988)"><g><path d="M 3.96875 0 L 1.125 0 L 1.125 -11.1875 L 3.96875 -11.1875 Z M 3.96875 0 "/></g></g></g><g fill="#ffffff" fill-opacity="1"><g transform="translate(167.008853, 303.351988)"><g><path d="M 9.671875 -8.90625 L 6.296875 -8.90625 L 6.296875 0 L 3.453125 0 L 3.453125 -8.90625 L 0.109375 -8.90625 L 0.109375 -11.203125 L 9.671875 -11.203125 Z M 9.671875 -8.90625 "/></g></g></g><g fill="#ffffff" fill-opacity="1"><g transform="translate(183.168314, 303.351988)"><g><path d="M 8.546875 -2.0625 L 3.65625 -2.0625 L 2.84375 0 L -0.078125 0 L 4.75 -11.1875 L 7.671875 -11.1875 L 12.390625 0 L 9.34375 0 Z M 7.71875 -4.21875 L 6.125 -8.359375 L 4.484375 -4.21875 Z M 7.71875 -4.21875 "/></g></g></g><g fill="#ffffff" fill-opacity="1"><g transform="translate(201.868604, 303.351988)"><g><path d="M 11.4375 0 L 8.9375 0 L 3.78125 -6.890625 L 3.78125 0 L 1.125 0 L 1.125 -11.1875 L 3.625 -11.1875 L 8.796875 -4.28125 L 8.796875 -11.1875 L 11.4375 -11.1875 Z M 11.4375 0 "/></g></g></g><g fill="#ffffff" fill-opacity="1"><g transform="translate(220.824585, 303.351988)"><g><path d="M 3.96875 0 L 1.125 0 L 1.125 -11.1875 L 3.96875 -11.1875 Z M 3.96875 0 "/></g></g></g><g fill="#ffffff" fill-opacity="1"><g transform="translate(88.773837, 334.187952)"><g><path d="M 3.96875 0 L 1.125 0 L 1.125 -11.1875 L 3.96875 -11.1875 Z M 3.96875 0 "/></g></g></g><g fill="#ffffff" fill-opacity="1"><g transform="translate(100.251132, 334.187952)"><g><path d="M 11.4375 0 L 8.9375 0 L 3.78125 -6.890625 L 3.78125 0 L 1.125 0 L 1.125 -11.1875 L 3.625 -11.1875 L 8.796875 -4.28125 L 8.796875 -11.1875 L 11.4375 -11.1875 Z M 11.4375 0 "/></g></g></g><g fill="#ffffff" fill-opacity="1"><g transform="translate(119.207112, 334.187952)"><g><path d="M 6.359375 -11.28125 C 7.191406 -11.28125 8.007812 -11.109375 8.8125 -10.765625 C 9.613281 -10.429688 10.300781 -9.976562 10.875 -9.40625 L 9.21875 -7.453125 C 8.851562 -7.898438 8.414062 -8.253906 7.90625 -8.515625 C 7.40625 -8.773438 6.90625 -8.90625 6.40625 -8.90625 C 5.519531 -8.90625 4.78125 -8.59375 4.1875 -7.96875 C 3.59375 -7.34375 3.296875 -6.570312 3.296875 -5.65625 C 3.296875 -4.71875 3.59375 -3.929688 4.1875 -3.296875 C 4.78125 -2.671875 5.519531 -2.359375 6.40625 -2.359375 C 6.875 -2.359375 7.359375 -2.472656 7.859375 -2.703125 C 8.367188 -2.941406 8.820312 -3.265625 9.21875 -3.671875 L 10.890625 -1.921875 C 10.273438 -1.296875 9.554688 -0.796875 8.734375 -0.421875 C 7.910156 -0.0546875 7.085938 0.125 6.265625 0.125 C 4.578125 0.125 3.175781 -0.421875 2.0625 -1.515625 C 0.945312 -2.617188 0.390625 -3.988281 0.390625 -5.625 C 0.390625 -7.238281 0.957031 -8.582031 2.09375 -9.65625 C 3.226562 -10.738281 4.648438 -11.28125 6.359375 -11.28125 Z M 6.359375 -11.28125 "/></g></g></g><g fill="#ffffff" fill-opacity="1"><g transform="translate(136.660956, 334.187952)"><g><path d="M 6.421875 -11.28125 C 8.160156 -11.28125 9.601562 -10.738281 10.75 -9.65625 C 11.90625 -8.582031 12.484375 -7.234375 12.484375 -5.609375 C 12.484375 -3.984375 11.90625 -2.617188 10.75 -1.515625 C 9.59375 -0.421875 8.148438 0.125 6.421875 0.125 C 4.703125 0.125 3.265625 -0.421875 2.109375 -1.515625 C 0.960938 -2.609375 0.390625 -3.972656 0.390625 -5.609375 C 0.390625 -7.242188 0.960938 -8.597656 2.109375 -9.671875 C 3.265625 -10.742188 4.703125 -11.28125 6.421875 -11.28125 Z M 6.453125 -8.90625 C 5.578125 -8.90625 4.832031 -8.585938 4.21875 -7.953125 C 3.601562 -7.316406 3.296875 -6.53125 3.296875 -5.59375 C 3.296875 -4.65625 3.601562 -3.863281 4.21875 -3.21875 C 4.84375 -2.570312 5.585938 -2.25 6.453125 -2.25 C 7.316406 -2.25 8.050781 -2.570312 8.65625 -3.21875 C 9.257812 -3.863281 9.5625 -4.65625 9.5625 -5.59375 C 9.5625 -6.53125 9.257812 -7.316406 8.65625 -7.953125 C 8.050781 -8.585938 7.316406 -8.90625 6.453125 -8.90625 Z M 6.453125 -8.90625 "/></g></g></g><g fill="#ffffff" fill-opacity="1"><g transform="translate(155.920553, 334.187952)"><g><path d="M 7.859375 0 L 6.203125 -3.15625 L 3.96875 -3.15625 L 3.96875 0 L 1.125 0 L 1.125 -11.1875 L 6.125 -11.1875 C 7.601562 -11.1875 8.742188 -10.847656 9.546875 -10.171875 C 10.359375 -9.492188 10.765625 -8.53125 10.765625 -7.28125 C 10.765625 -5.5625 10.09375 -4.363281 8.75 -3.6875 L 11.09375 0 Z M 3.96875 -5.390625 L 6.125 -5.390625 C 6.738281 -5.390625 7.21875 -5.539062 7.5625 -5.84375 C 7.90625 -6.15625 8.078125 -6.601562 8.078125 -7.1875 C 8.078125 -7.769531 7.90625 -8.207031 7.5625 -8.5 C 7.21875 -8.800781 6.738281 -8.953125 6.125 -8.953125 L 3.96875 -8.953125 Z M 3.96875 -5.390625 "/></g></g></g><g fill="#ffffff" fill-opacity="1"><g transform="translate(173.885764, 334.187952)"><g><path d="M 1.125 -11.1875 L 6 -11.1875 C 7.425781 -11.1875 8.53125 -10.847656 9.3125 -10.171875 C 10.101562 -9.492188 10.5 -8.53125 10.5 -7.28125 C 10.5 -5.976562 10.101562 -4.960938 9.3125 -4.234375 C 8.53125 -3.515625 7.425781 -3.15625 6 -3.15625 L 3.96875 -3.15625 L 3.96875 0 L 1.125 0 Z M 3.96875 -8.953125 L 3.96875 -5.390625 L 5.84375 -5.390625 C 6.476562 -5.390625 6.960938 -5.539062 7.296875 -5.84375 C 7.640625 -6.15625 7.8125 -6.601562 7.8125 -7.1875 C 7.8125 -7.769531 7.640625 -8.207031 7.296875 -8.5 C 6.960938 -8.800781 6.476562 -8.953125 5.84375 -8.953125 Z M 3.96875 -8.953125 "/></g></g></g><g fill="#ffffff" fill-opacity="1"><g transform="translate(191.147849, 334.187952)"><g><path d="M 6.421875 -11.28125 C 8.160156 -11.28125 9.601562 -10.738281 10.75 -9.65625 C 11.90625 -8.582031 12.484375 -7.234375 12.484375 -5.609375 C 12.484375 -3.984375 11.90625 -2.617188 10.75 -1.515625 C 9.59375 -0.421875 8.148438 0.125 6.421875 0.125 C 4.703125 0.125 3.265625 -0.421875 2.109375 -1.515625 C 0.960938 -2.609375 0.390625 -3.972656 0.390625 -5.609375 C 0.390625 -7.242188 0.960938 -8.597656 2.109375 -9.671875 C 3.265625 -10.742188 4.703125 -11.28125 6.421875 -11.28125 Z M 6.453125 -8.90625 C 5.578125 -8.90625 4.832031 -8.585938 4.21875 -7.953125 C 3.601562 -7.316406 3.296875 -6.53125 3.296875 -5.59375 C 3.296875 -4.65625 3.601562 -3.863281 4.21875 -3.21875 C 4.84375 -2.570312 5.585938 -2.25 6.453125 -2.25 C 7.316406 -2.25 8.050781 -2.570312 8.65625 -3.21875 C 9.257812 -3.863281 9.5625 -4.65625 9.5625 -5.59375 C 9.5625 -6.53125 9.257812 -7.316406 8.65625 -7.953125 C 8.050781 -8.585938 7.316406 -8.90625 6.453125 -8.90625 Z M 6.453125 -8.90625 "/></g></g></g><g fill="#ffffff" fill-opacity="1"><g transform="translate(210.407446, 334.187952)"><g><path d="M 7.859375 0 L 6.203125 -3.15625 L 3.96875 -3.15625 L 3.96875 0 L 1.125 0 L 1.125 -11.1875 L 6.125 -11.1875 C 7.601562 -11.1875 8.742188 -10.847656 9.546875 -10.171875 C 10.359375 -9.492188 10.765625 -8.53125 10.765625 -7.28125 C 10.765625 -5.5625 10.09375 -4.363281 8.75 -3.6875 L 11.09375 0 Z M 3.96875 -5.390625 L 6.125 -5.390625 C 6.738281 -5.390625 7.21875 -5.539062 7.5625 -5.84375 C 7.90625 -6.15625 8.078125 -6.601562 8.078125 -7.1875 C 8.078125 -7.769531 7.90625 -8.207031 7.5625 -8.5 C 7.21875 -8.800781 6.738281 -8.953125 6.125 -8.953125 L 3.96875 -8.953125 Z M 3.96875 -5.390625 "/></g></g></g><g fill="#ffffff" fill-opacity="1"><g transform="translate(228.372651, 334.187952)"><g><path d="M 8.546875 -2.0625 L 3.65625 -2.0625 L 2.84375 0 L -0.078125 0 L 4.75 -11.1875 L 7.671875 -11.1875 L 12.390625 0 L 9.34375 0 Z M 7.71875 -4.21875 L 6.125 -8.359375 L 4.484375 -4.21875 Z M 7.71875 -4.21875 "/></g></g></g><g fill="#ffffff" fill-opacity="1"><g transform="translate(247.072938, 334.187952)"><g><path d="M 9.671875 -8.90625 L 6.296875 -8.90625 L 6.296875 0 L 3.453125 0 L 3.453125 -8.90625 L 0.109375 -8.90625 L 0.109375 -11.203125 L 9.671875 -11.203125 Z M 9.671875 -8.90625 "/></g></g></g><g fill="#ffffff" fill-opacity="1"><g transform="translate(263.232393, 334.187952)"><g><path d="M 9.875 -8.953125 L 3.96875 -8.953125 L 3.96875 -6.734375 L 9.296875 -6.734375 L 9.296875 -4.484375 L 3.96875 -4.484375 L 3.96875 -2.234375 L 10.046875 -2.234375 L 10.046875 0 L 1.125 0 L 1.125 -11.1875 L 9.875 -11.1875 Z M 9.875 -8.953125 "/></g></g></g><g fill="#ffffff" fill-opacity="1"><g transform="translate(280.39859, 334.187952)"><g><path d="M 1.125 -11.1875 L 5.9375 -11.1875 C 7.6875 -11.1875 9.113281 -10.671875 10.21875 -9.640625 C 11.320312 -8.609375 11.875 -7.257812 11.875 -5.59375 C 11.875 -3.9375 11.3125 -2.585938 10.1875 -1.546875 C 9.070312 -0.515625 7.613281 0 5.8125 0 L 1.125 0 Z M 3.96875 -8.921875 L 3.96875 -2.265625 L 6 -2.265625 C 6.875 -2.265625 7.585938 -2.570312 8.140625 -3.1875 C 8.703125 -3.800781 8.984375 -4.597656 8.984375 -5.578125 C 8.984375 -6.554688 8.6875 -7.359375 8.09375 -7.984375 C 7.507812 -8.609375 6.765625 -8.921875 5.859375 -8.921875 Z M 3.96875 -8.921875 "/></g></g></g><g clip-path="url(#e4b9d45e8f)"><path fill="#ffffff" d="M 322.003906 81.363281 L 321.996094 77.832031 L 320.265625 80.742188 L 319.648438 80.742188 L 317.925781 77.910156 L 317.925781 81.363281 L 316.648438 81.363281 L 316.648438 75.476562 L 317.773438 75.476562 L 319.976562 79.136719 L 322.148438 75.476562 L 323.265625 75.476562 L 323.28125 81.363281 Z M 315.917969 76.589844 L 314.035156 76.589844 L 314.035156 81.363281 L 312.671875 81.363281 L 312.671875 76.589844 L 310.789062 76.589844 L 310.789062 75.476562 L 315.917969 75.476562 Z M 317.371094 69.160156 C 312.347656 69.160156 308.277344 73.230469 308.277344 78.253906 C 308.277344 83.277344 312.347656 87.347656 317.371094 87.347656 C 322.394531 87.347656 326.464844 83.277344 326.464844 78.253906 C 326.464844 73.230469 322.394531 69.160156 317.371094 69.160156 " fill-opacity="1" fill-rule="nonzero"/></g></svg>