<svg xmlns="http://www.w3.org/2000/svg" xmlns:xlink="http://www.w3.org/1999/xlink" width="500" zoomAndPan="magnify" viewBox="0 0 375 374.999991" height="500" preserveAspectRatio="xMidYMid meet" version="1.0"><defs><g/><clipPath id="59cac85aee"><path d="M 102.449219 69.160156 L 278.699219 69.160156 L 278.699219 245.410156 L 102.449219 245.410156 Z M 102.449219 69.160156 " clip-rule="nonzero"/></clipPath><clipPath id="d3e7629a40"><path d="M 308.277344 69.160156 L 326.277344 69.160156 L 326.277344 87.160156 L 308.277344 87.160156 Z M 308.277344 69.160156 " clip-rule="nonzero"/></clipPath></defs><rect x="-37.5" width="450" fill="#ffffff" y="-37.499999" height="449.999989" fill-opacity="1"/><rect x="-37.5" width="450" fill="#ffffff" y="-37.499999" height="449.999989" fill-opacity="1"/><g clip-path="url(#59cac85aee)"><path fill="#000000" d="M 274.980469 187.023438 C 273.136719 187.023438 271.640625 185.523438 271.640625 183.675781 L 271.640625 80.929688 L 214.925781 137.785156 C 213.621094 139.09375 211.507812 139.09375 210.203125 137.785156 C 208.898438 136.476562 208.898438 134.355469 210.203125 133.046875 L 272.617188 70.476562 C 273.574219 69.515625 275.007812 69.230469 276.257812 69.75 C 277.507812 70.269531 278.320312 71.488281 278.320312 72.84375 L 278.320312 183.675781 C 278.320312 185.523438 276.824219 187.023438 274.980469 187.023438 Z M 106.1875 245.410156 C 104.34375 245.410156 102.847656 243.910156 102.847656 242.0625 L 102.847656 125.289062 C 102.847656 123.933594 103.664062 122.710938 104.910156 122.195312 C 106.160156 121.675781 107.597656 121.960938 108.550781 122.917969 L 166.792969 181.308594 C 168.097656 182.613281 168.097656 184.734375 166.792969 186.042969 C 165.488281 187.351562 163.371094 187.351562 162.066406 186.042969 L 109.53125 133.375 L 109.53125 242.0625 C 109.53125 243.910156 108.035156 245.410156 106.1875 245.410156 Z M 274.980469 245.410156 C 274.125 245.410156 273.269531 245.082031 272.617188 244.429688 L 103.828125 75.210938 C 102.523438 73.90625 102.523438 71.785156 103.828125 70.476562 C 105.132812 69.167969 107.246094 69.167969 108.550781 70.476562 L 277.339844 239.691406 C 278.648438 241 278.648438 243.121094 277.339844 244.429688 C 276.6875 245.082031 275.832031 245.410156 274.980469 245.410156 " fill-opacity="1" fill-rule="nonzero"/></g><g fill="#000000" fill-opacity="1"><g transform="translate(99.399303, 287.211143)"><g><path d="M 13.609375 0 L 11.0625 0 L 11.046875 -7.375 L 8.3125 -1.140625 L 6.4375 -1.140625 L 3.71875 -7.375 L 3.71875 0 L 1.140625 0 L 1.140625 -11.375 L 4.296875 -11.375 L 7.375 -4.609375 L 10.46875 -11.375 L 13.609375 -11.375 Z M 13.609375 0 "/></g></g></g><g fill="#000000" fill-opacity="1"><g transform="translate(120.642165, 287.211143)"><g><path d="M 11.359375 -11.359375 L 11.359375 -4.765625 C 11.359375 -3.265625 10.890625 -2.070312 9.953125 -1.1875 C 9.023438 -0.3125 7.765625 0.125 6.171875 0.125 C 4.578125 0.125 3.304688 -0.3125 2.359375 -1.1875 C 1.410156 -2.070312 0.9375 -3.265625 0.9375 -4.765625 L 0.9375 -11.359375 L 3.828125 -11.359375 L 3.828125 -4.765625 C 3.828125 -4.015625 4.046875 -3.410156 4.484375 -2.953125 C 4.921875 -2.503906 5.492188 -2.28125 6.203125 -2.28125 C 6.890625 -2.28125 7.441406 -2.5 7.859375 -2.9375 C 8.273438 -3.382812 8.484375 -3.992188 8.484375 -4.765625 L 8.484375 -11.359375 Z M 11.359375 -11.359375 "/></g></g></g><g fill="#000000" fill-opacity="1"><g transform="translate(139.420624, 287.211143)"><g><path d="M 11.609375 0 L 9.0625 0 L 3.84375 -6.984375 L 3.84375 0 L 1.140625 0 L 1.140625 -11.359375 L 3.6875 -11.359375 L 8.921875 -4.34375 L 8.921875 -11.359375 L 11.609375 -11.359375 Z M 11.609375 0 "/></g></g></g><g fill="#000000" fill-opacity="1"><g transform="translate(158.653058, 287.211143)"><g><path d="M 6.984375 -3.671875 L 6.984375 0 L 4.125 0 L 4.125 -3.578125 L -0.078125 -11.359375 L 2.8125 -11.359375 L 5.546875 -6.40625 L 8.21875 -11.359375 L 11.109375 -11.359375 Z M 6.984375 -3.671875 "/></g></g></g><g fill="#000000" fill-opacity="1"><g transform="translate(176.166895, 287.211143)"><g><path d="M 8.671875 -2.09375 L 3.71875 -2.09375 L 2.890625 0 L -0.078125 0 L 4.8125 -11.359375 L 7.78125 -11.359375 L 12.5625 0 L 9.484375 0 Z M 7.828125 -4.28125 L 6.21875 -8.484375 L 4.5625 -4.28125 Z M 7.828125 -4.28125 "/></g></g></g><g fill="#000000" fill-opacity="1"><g transform="translate(195.139915, 287.211143)"><g><path d="M 11.609375 0 L 9.0625 0 L 3.84375 -6.984375 L 3.84375 0 L 1.140625 0 L 1.140625 -11.359375 L 3.6875 -11.359375 L 8.921875 -4.34375 L 8.921875 -11.359375 L 11.609375 -11.359375 Z M 11.609375 0 "/></g></g></g><g fill="#000000" fill-opacity="1"><g transform="translate(214.372346, 287.211143)"><g><path d="M 8.671875 -5.78125 L 11.171875 -5.78125 L 11.171875 -1.34375 C 10.554688 -0.914062 9.8125 -0.5625 8.9375 -0.28125 C 8.070312 -0.0078125 7.242188 0.125 6.453125 0.125 C 4.722656 0.125 3.28125 -0.425781 2.125 -1.53125 C 0.96875 -2.632812 0.390625 -4.015625 0.390625 -5.671875 C 0.390625 -7.316406 0.984375 -8.691406 2.171875 -9.796875 C 3.359375 -10.898438 4.851562 -11.453125 6.65625 -11.453125 C 7.5 -11.453125 8.332031 -11.300781 9.15625 -11 C 9.988281 -10.695312 10.695312 -10.285156 11.28125 -9.765625 L 9.671875 -7.796875 C 9.253906 -8.179688 8.773438 -8.484375 8.234375 -8.703125 C 7.691406 -8.921875 7.160156 -9.03125 6.640625 -9.03125 C 5.703125 -9.03125 4.914062 -8.707031 4.28125 -8.0625 C 3.65625 -7.425781 3.34375 -6.628906 3.34375 -5.671875 C 3.34375 -4.710938 3.660156 -3.90625 4.296875 -3.25 C 4.929688 -2.601562 5.722656 -2.28125 6.671875 -2.28125 C 7.273438 -2.28125 7.941406 -2.46875 8.671875 -2.84375 Z M 8.671875 -5.78125 "/></g></g></g><g fill="#000000" fill-opacity="1"><g transform="translate(232.907614, 287.211143)"><g><path d="M 8.671875 -2.09375 L 3.71875 -2.09375 L 2.890625 0 L -0.078125 0 L 4.8125 -11.359375 L 7.78125 -11.359375 L 12.5625 0 L 9.484375 0 Z M 7.828125 -4.28125 L 6.21875 -8.484375 L 4.5625 -4.28125 Z M 7.828125 -4.28125 "/></g></g></g><g fill="#000000" fill-opacity="1"><g transform="translate(251.880627, 287.211143)"><g><path d="M 11.609375 0 L 9.0625 0 L 3.84375 -6.984375 L 3.84375 0 L 1.140625 0 L 1.140625 -11.359375 L 3.6875 -11.359375 L 8.921875 -4.34375 L 8.921875 -11.359375 L 11.609375 -11.359375 Z M 11.609375 0 "/></g></g></g><g fill="#000000" fill-opacity="1"><g transform="translate(271.113058, 287.211143)"><g><path d="M 10.015625 -9.078125 L 4.015625 -9.078125 L 4.015625 -6.828125 L 9.4375 -6.828125 L 9.4375 -4.5625 L 4.015625 -4.5625 L 4.015625 -2.265625 L 10.203125 -2.265625 L 10.203125 0 L 1.140625 0 L 1.140625 -11.359375 L 10.015625 -11.359375 Z M 10.015625 -9.078125 "/></g></g></g><g fill="#000000" fill-opacity="1"><g transform="translate(155.018288, 302.853983)"><g><path d="M 4.015625 0 L 1.140625 0 L 1.140625 -11.359375 L 4.015625 -11.359375 Z M 4.015625 0 "/></g></g></g><g fill="#000000" fill-opacity="1"><g transform="translate(166.662969, 302.853983)"><g><path d="M 9.8125 -9.03125 L 6.390625 -9.03125 L 6.390625 0 L 3.5 0 L 3.5 -9.03125 L 0.109375 -9.03125 L 0.109375 -11.375 L 9.8125 -11.375 Z M 9.8125 -9.03125 "/></g></g></g><g fill="#000000" fill-opacity="1"><g transform="translate(183.058101, 302.853983)"><g><path d="M 8.671875 -2.09375 L 3.71875 -2.09375 L 2.890625 0 L -0.078125 0 L 4.8125 -11.359375 L 7.78125 -11.359375 L 12.5625 0 L 9.484375 0 Z M 7.828125 -4.28125 L 6.21875 -8.484375 L 4.5625 -4.28125 Z M 7.828125 -4.28125 "/></g></g></g><g fill="#000000" fill-opacity="1"><g transform="translate(202.031117, 302.853983)"><g><path d="M 11.609375 0 L 9.0625 0 L 3.84375 -6.984375 L 3.84375 0 L 1.140625 0 L 1.140625 -11.359375 L 3.6875 -11.359375 L 8.921875 -4.34375 L 8.921875 -11.359375 L 11.609375 -11.359375 Z M 11.609375 0 "/></g></g></g><g fill="#000000" fill-opacity="1"><g transform="translate(221.263555, 302.853983)"><g><path d="M 4.015625 0 L 1.140625 0 L 1.140625 -11.359375 L 4.015625 -11.359375 Z M 4.015625 0 "/></g></g></g><g fill="#000000" fill-opacity="1"><g transform="translate(87.286966, 334.139662)"><g><path d="M 4.015625 0 L 1.140625 0 L 1.140625 -11.359375 L 4.015625 -11.359375 Z M 4.015625 0 "/></g></g></g><g fill="#000000" fill-opacity="1"><g transform="translate(98.931647, 334.139662)"><g><path d="M 11.609375 0 L 9.0625 0 L 3.84375 -6.984375 L 3.84375 0 L 1.140625 0 L 1.140625 -11.359375 L 3.6875 -11.359375 L 8.921875 -4.34375 L 8.921875 -11.359375 L 11.609375 -11.359375 Z M 11.609375 0 "/></g></g></g><g fill="#000000" fill-opacity="1"><g transform="translate(118.164082, 334.139662)"><g><path d="M 6.453125 -11.453125 C 7.296875 -11.453125 8.125 -11.273438 8.9375 -10.921875 C 9.757812 -10.578125 10.457031 -10.113281 11.03125 -9.53125 L 9.359375 -7.5625 C 8.992188 -8.007812 8.550781 -8.363281 8.03125 -8.625 C 7.519531 -8.894531 7.007812 -9.03125 6.5 -9.03125 C 5.601562 -9.03125 4.851562 -8.710938 4.25 -8.078125 C 3.644531 -7.453125 3.34375 -6.671875 3.34375 -5.734375 C 3.34375 -4.785156 3.644531 -3.992188 4.25 -3.359375 C 4.851562 -2.722656 5.601562 -2.40625 6.5 -2.40625 C 6.976562 -2.40625 7.472656 -2.519531 7.984375 -2.75 C 8.503906 -2.988281 8.960938 -3.316406 9.359375 -3.734375 L 11.046875 -1.953125 C 10.429688 -1.316406 9.703125 -0.8125 8.859375 -0.4375 C 8.023438 -0.0625 7.191406 0.125 6.359375 0.125 C 4.648438 0.125 3.226562 -0.429688 2.09375 -1.546875 C 0.957031 -2.660156 0.390625 -4.046875 0.390625 -5.703125 C 0.390625 -7.335938 0.96875 -8.703125 2.125 -9.796875 C 3.28125 -10.898438 4.722656 -11.453125 6.453125 -11.453125 Z M 6.453125 -11.453125 "/></g></g></g><g fill="#000000" fill-opacity="1"><g transform="translate(135.872475, 334.139662)"><g><path d="M 6.515625 -11.453125 C 8.273438 -11.453125 9.738281 -10.898438 10.90625 -9.796875 C 12.082031 -8.703125 12.671875 -7.332031 12.671875 -5.6875 C 12.671875 -4.039062 12.082031 -2.660156 10.90625 -1.546875 C 9.726562 -0.429688 8.265625 0.125 6.515625 0.125 C 4.765625 0.125 3.304688 -0.425781 2.140625 -1.53125 C 0.972656 -2.632812 0.390625 -4.019531 0.390625 -5.6875 C 0.390625 -7.34375 0.972656 -8.71875 2.140625 -9.8125 C 3.304688 -10.90625 4.765625 -11.453125 6.515625 -11.453125 Z M 6.546875 -9.03125 C 5.660156 -9.03125 4.90625 -8.707031 4.28125 -8.0625 C 3.65625 -7.425781 3.34375 -6.628906 3.34375 -5.671875 C 3.34375 -4.722656 3.65625 -3.921875 4.28125 -3.265625 C 4.914062 -2.609375 5.671875 -2.28125 6.546875 -2.28125 C 7.421875 -2.28125 8.164062 -2.609375 8.78125 -3.265625 C 9.394531 -3.921875 9.703125 -4.722656 9.703125 -5.671875 C 9.703125 -6.628906 9.394531 -7.425781 8.78125 -8.0625 C 8.164062 -8.707031 7.421875 -9.03125 6.546875 -9.03125 Z M 6.546875 -9.03125 "/></g></g></g><g fill="#000000" fill-opacity="1"><g transform="translate(155.412956, 334.139662)"><g><path d="M 7.984375 0 L 6.296875 -3.1875 L 4.015625 -3.1875 L 4.015625 0 L 1.140625 0 L 1.140625 -11.359375 L 6.21875 -11.359375 C 7.71875 -11.359375 8.878906 -11.015625 9.703125 -10.328125 C 10.523438 -9.640625 10.9375 -8.660156 10.9375 -7.390625 C 10.9375 -5.640625 10.25 -4.425781 8.875 -3.75 L 11.25 0 Z M 4.015625 -5.46875 L 6.21875 -5.46875 C 6.84375 -5.46875 7.328125 -5.625 7.671875 -5.9375 C 8.015625 -6.25 8.1875 -6.703125 8.1875 -7.296875 C 8.1875 -7.878906 8.015625 -8.320312 7.671875 -8.625 C 7.328125 -8.925781 6.84375 -9.078125 6.21875 -9.078125 L 4.015625 -9.078125 Z M 4.015625 -5.46875 "/></g></g></g><g fill="#000000" fill-opacity="1"><g transform="translate(173.640173, 334.139662)"><g><path d="M 1.140625 -11.359375 L 6.078125 -11.359375 C 7.523438 -11.359375 8.648438 -11.015625 9.453125 -10.328125 C 10.253906 -9.640625 10.65625 -8.660156 10.65625 -7.390625 C 10.65625 -6.066406 10.253906 -5.035156 9.453125 -4.296875 C 8.648438 -3.554688 7.523438 -3.1875 6.078125 -3.1875 L 4.015625 -3.1875 L 4.015625 0 L 1.140625 0 Z M 4.015625 -9.078125 L 4.015625 -5.46875 L 5.9375 -5.46875 C 6.570312 -5.46875 7.0625 -5.625 7.40625 -5.9375 C 7.757812 -6.25 7.9375 -6.703125 7.9375 -7.296875 C 7.9375 -7.878906 7.757812 -8.320312 7.40625 -8.625 C 7.0625 -8.925781 6.570312 -9.078125 5.9375 -9.078125 Z M 4.015625 -9.078125 "/></g></g></g><g fill="#000000" fill-opacity="1"><g transform="translate(191.15401, 334.139662)"><g><path d="M 6.515625 -11.453125 C 8.273438 -11.453125 9.738281 -10.898438 10.90625 -9.796875 C 12.082031 -8.703125 12.671875 -7.332031 12.671875 -5.6875 C 12.671875 -4.039062 12.082031 -2.660156 10.90625 -1.546875 C 9.726562 -0.429688 8.265625 0.125 6.515625 0.125 C 4.765625 0.125 3.304688 -0.425781 2.140625 -1.53125 C 0.972656 -2.632812 0.390625 -4.019531 0.390625 -5.6875 C 0.390625 -7.34375 0.972656 -8.71875 2.140625 -9.8125 C 3.304688 -10.90625 4.765625 -11.453125 6.515625 -11.453125 Z M 6.546875 -9.03125 C 5.660156 -9.03125 4.90625 -8.707031 4.28125 -8.0625 C 3.65625 -7.425781 3.34375 -6.628906 3.34375 -5.671875 C 3.34375 -4.722656 3.65625 -3.921875 4.28125 -3.265625 C 4.914062 -2.609375 5.671875 -2.28125 6.546875 -2.28125 C 7.421875 -2.28125 8.164062 -2.609375 8.78125 -3.265625 C 9.394531 -3.921875 9.703125 -4.722656 9.703125 -5.671875 C 9.703125 -6.628906 9.394531 -7.425781 8.78125 -8.0625 C 8.164062 -8.707031 7.421875 -9.03125 6.546875 -9.03125 Z M 6.546875 -9.03125 "/></g></g></g><g fill="#000000" fill-opacity="1"><g transform="translate(210.694491, 334.139662)"><g><path d="M 7.984375 0 L 6.296875 -3.1875 L 4.015625 -3.1875 L 4.015625 0 L 1.140625 0 L 1.140625 -11.359375 L 6.21875 -11.359375 C 7.71875 -11.359375 8.878906 -11.015625 9.703125 -10.328125 C 10.523438 -9.640625 10.9375 -8.660156 10.9375 -7.390625 C 10.9375 -5.640625 10.25 -4.425781 8.875 -3.75 L 11.25 0 Z M 4.015625 -5.46875 L 6.21875 -5.46875 C 6.84375 -5.46875 7.328125 -5.625 7.671875 -5.9375 C 8.015625 -6.25 8.1875 -6.703125 8.1875 -7.296875 C 8.1875 -7.878906 8.015625 -8.320312 7.671875 -8.625 C 7.328125 -8.925781 6.84375 -9.078125 6.21875 -9.078125 L 4.015625 -9.078125 Z M 4.015625 -5.46875 "/></g></g></g><g fill="#000000" fill-opacity="1"><g transform="translate(228.921702, 334.139662)"><g><path d="M 8.671875 -2.09375 L 3.71875 -2.09375 L 2.890625 0 L -0.078125 0 L 4.8125 -11.359375 L 7.78125 -11.359375 L 12.5625 0 L 9.484375 0 Z M 7.828125 -4.28125 L 6.21875 -8.484375 L 4.5625 -4.28125 Z M 7.828125 -4.28125 "/></g></g></g><g fill="#000000" fill-opacity="1"><g transform="translate(247.894716, 334.139662)"><g><path d="M 9.8125 -9.03125 L 6.390625 -9.03125 L 6.390625 0 L 3.5 0 L 3.5 -9.03125 L 0.109375 -9.03125 L 0.109375 -11.375 L 9.8125 -11.375 Z M 9.8125 -9.03125 "/></g></g></g><g fill="#000000" fill-opacity="1"><g transform="translate(264.289842, 334.139662)"><g><path d="M 10.015625 -9.078125 L 4.015625 -9.078125 L 4.015625 -6.828125 L 9.4375 -6.828125 L 9.4375 -4.5625 L 4.015625 -4.5625 L 4.015625 -2.265625 L 10.203125 -2.265625 L 10.203125 0 L 1.140625 0 L 1.140625 -11.359375 L 10.015625 -11.359375 Z M 10.015625 -9.078125 "/></g></g></g><g fill="#000000" fill-opacity="1"><g transform="translate(281.706392, 334.139662)"><g><path d="M 1.140625 -11.359375 L 6.015625 -11.359375 C 7.796875 -11.359375 9.242188 -10.832031 10.359375 -9.78125 C 11.484375 -8.726562 12.046875 -7.359375 12.046875 -5.671875 C 12.046875 -3.992188 11.476562 -2.628906 10.34375 -1.578125 C 9.207031 -0.523438 7.726562 0 5.90625 0 L 1.140625 0 Z M 4.015625 -9.046875 L 4.015625 -2.296875 L 6.078125 -2.296875 C 6.960938 -2.296875 7.6875 -2.609375 8.25 -3.234375 C 8.820312 -3.859375 9.109375 -4.664062 9.109375 -5.65625 C 9.109375 -6.65625 8.8125 -7.46875 8.21875 -8.09375 C 7.625 -8.726562 6.867188 -9.046875 5.953125 -9.046875 Z M 4.015625 -9.046875 "/></g></g></g><g clip-path="url(#d3e7629a40)"><path fill="#000000" d="M 321.863281 81.238281 L 321.855469 77.742188 L 320.140625 80.621094 L 319.53125 80.621094 L 317.828125 77.816406 L 317.828125 81.238281 L 316.5625 81.238281 L 316.5625 75.414062 L 317.675781 75.414062 L 319.859375 79.035156 L 322.003906 75.414062 L 323.109375 75.414062 L 323.128906 81.238281 Z M 315.839844 76.511719 L 313.972656 76.511719 L 313.972656 81.238281 L 312.625 81.238281 L 312.625 76.511719 L 310.761719 76.511719 L 310.761719 75.414062 L 315.839844 75.414062 Z M 317.277344 69.160156 C 312.308594 69.160156 308.277344 73.191406 308.277344 78.160156 C 308.277344 83.128906 312.308594 87.160156 317.277344 87.160156 C 322.246094 87.160156 326.277344 83.128906 326.277344 78.160156 C 326.277344 73.191406 322.246094 69.160156 317.277344 69.160156 " fill-opacity="1" fill-rule="nonzero"/></g></svg>