<svg xmlns="http://www.w3.org/2000/svg" xmlns:xlink="http://www.w3.org/1999/xlink" width="500" zoomAndPan="magnify" viewBox="0 0 375 374.999991" height="500" preserveAspectRatio="xMidYMid meet" version="1.0"><defs><g/><clipPath id="b80bcb573a"><path d="M 102.449219 69.160156 L 278.699219 69.160156 L 278.699219 245.410156 L 102.449219 245.410156 Z M 102.449219 69.160156 " clip-rule="nonzero"/></clipPath><clipPath id="6143d05a03"><path d="M 308.277344 69.160156 L 326.277344 69.160156 L 326.277344 87.160156 L 308.277344 87.160156 Z M 308.277344 69.160156 " clip-rule="nonzero"/></clipPath></defs><rect x="-37.5" width="450" fill="#ffffff" y="-37.499999" height="449.999989" fill-opacity="1"/><rect x="-37.5" width="450" fill="#030720" y="-37.499999" height="449.999989" fill-opacity="1"/><g clip-path="url(#b80bcb573a)"><path fill="#f4f6fc" d="M 275.265625 186.921875 C 273.417969 186.921875 271.917969 185.421875 271.917969 183.574219 L 271.917969 80.921875 L 215.113281 137.726562 C 213.808594 139.03125 211.6875 139.03125 210.382812 137.726562 C 209.074219 136.417969 209.074219 134.300781 210.382812 132.992188 L 272.898438 70.476562 C 273.855469 69.515625 275.296875 69.230469 276.546875 69.75 C 277.796875 70.265625 278.613281 71.488281 278.613281 72.839844 L 278.613281 183.574219 C 278.613281 185.421875 277.113281 186.921875 275.265625 186.921875 Z M 106.195312 245.257812 C 104.347656 245.257812 102.847656 243.761719 102.847656 241.910156 L 102.847656 125.238281 C 102.847656 123.886719 103.664062 122.664062 104.914062 122.148438 C 106.164062 121.628906 107.605469 121.914062 108.5625 122.871094 L 166.898438 181.210938 C 168.203125 182.515625 168.203125 184.636719 166.898438 185.941406 C 165.589844 187.25 163.472656 187.25 162.164062 185.941406 L 109.542969 133.316406 L 109.542969 241.910156 C 109.542969 243.761719 108.042969 245.257812 106.195312 245.257812 Z M 275.265625 245.257812 C 274.410156 245.257812 273.554688 244.929688 272.898438 244.277344 L 103.828125 75.207031 C 102.523438 73.902344 102.523438 71.78125 103.828125 70.476562 C 105.136719 69.167969 107.253906 69.167969 108.5625 70.476562 L 277.632812 239.546875 C 278.941406 240.851562 278.941406 242.972656 277.632812 244.277344 C 276.976562 244.929688 276.121094 245.257812 275.265625 245.257812 " fill-opacity="1" fill-rule="nonzero"/></g><g clip-path="url(#6143d05a03)"><path fill="#ffffff" d="M 322.003906 81.363281 L 321.996094 77.832031 L 320.265625 80.742188 L 319.648438 80.742188 L 317.925781 77.910156 L 317.925781 81.363281 L 316.648438 81.363281 L 316.648438 75.476562 L 317.773438 75.476562 L 319.976562 79.136719 L 322.148438 75.476562 L 323.265625 75.476562 L 323.28125 81.363281 Z M 315.917969 76.589844 L 314.035156 76.589844 L 314.035156 81.363281 L 312.671875 81.363281 L 312.671875 76.589844 L 310.789062 76.589844 L 310.789062 75.476562 L 315.917969 75.476562 Z M 317.371094 69.160156 C 312.347656 69.160156 308.277344 73.230469 308.277344 78.253906 C 308.277344 83.277344 312.347656 87.347656 317.371094 87.347656 C 322.394531 87.347656 326.464844 83.277344 326.464844 78.253906 C 326.464844 73.230469 322.394531 69.160156 317.371094 69.160156 " fill-opacity="1" fill-rule="nonzero"/></g><g fill="#f4f6fc" fill-opacity="1"><g transform="translate(109.545665, 295.759789)"><g><path d="M 13.390625 0 L 10.890625 0 L 10.875 -7.265625 L 8.1875 -1.125 L 6.34375 -1.125 L 3.65625 -7.265625 L 3.65625 0 L 1.125 0 L 1.125 -11.1875 L 4.234375 -11.1875 L 7.265625 -4.53125 L 10.296875 -11.1875 L 13.390625 -11.1875 Z M 13.390625 0 "/></g></g></g><g fill="#f4f6fc" fill-opacity="1"><g transform="translate(130.462989, 295.759789)"><g><path d="M 11.171875 -11.171875 L 11.171875 -4.6875 C 11.171875 -3.207031 10.710938 -2.035156 9.796875 -1.171875 C 8.890625 -0.304688 7.648438 0.125 6.078125 0.125 C 4.503906 0.125 3.25 -0.304688 2.3125 -1.171875 C 1.382812 -2.035156 0.921875 -3.207031 0.921875 -4.6875 L 0.921875 -11.171875 L 3.765625 -11.171875 L 3.765625 -4.6875 C 3.765625 -3.945312 3.976562 -3.351562 4.40625 -2.90625 C 4.84375 -2.46875 5.40625 -2.25 6.09375 -2.25 C 6.78125 -2.25 7.328125 -2.46875 7.734375 -2.90625 C 8.148438 -3.34375 8.359375 -3.9375 8.359375 -4.6875 L 8.359375 -11.171875 Z M 11.171875 -11.171875 "/></g></g></g><g fill="#f4f6fc" fill-opacity="1"><g transform="translate(148.953676, 295.759789)"><g><path d="M 11.4375 0 L 8.921875 0 L 3.78125 -6.875 L 3.78125 0 L 1.125 0 L 1.125 -11.171875 L 3.625 -11.171875 L 8.78125 -4.28125 L 8.78125 -11.171875 L 11.4375 -11.171875 Z M 11.4375 0 "/></g></g></g><g fill="#f4f6fc" fill-opacity="1"><g transform="translate(167.891382, 295.759789)"><g><path d="M 6.875 -3.609375 L 6.875 0 L 4.0625 0 L 4.0625 -3.53125 L -0.078125 -11.171875 L 2.765625 -11.171875 L 5.46875 -6.3125 L 8.09375 -11.171875 L 10.9375 -11.171875 Z M 6.875 -3.609375 "/></g></g></g><g fill="#f4f6fc" fill-opacity="1"><g transform="translate(185.136826, 295.759789)"><g><path d="M 8.546875 -2.0625 L 3.65625 -2.0625 L 2.84375 0 L -0.078125 0 L 4.75 -11.171875 L 7.671875 -11.171875 L 12.375 0 L 9.34375 0 Z M 7.71875 -4.21875 L 6.109375 -8.359375 L 4.484375 -4.21875 Z M 7.71875 -4.21875 "/></g></g></g><g fill="#f4f6fc" fill-opacity="1"><g transform="translate(203.819093, 295.759789)"><g><path d="M 11.4375 0 L 8.921875 0 L 3.78125 -6.875 L 3.78125 0 L 1.125 0 L 1.125 -11.171875 L 3.625 -11.171875 L 8.78125 -4.28125 L 8.78125 -11.171875 L 11.4375 -11.171875 Z M 11.4375 0 "/></g></g></g><g fill="#f4f6fc" fill-opacity="1"><g transform="translate(222.756795, 295.759789)"><g><path d="M 8.546875 -5.6875 L 11 -5.6875 L 11 -1.328125 C 10.394531 -0.898438 9.660156 -0.550781 8.796875 -0.28125 C 7.941406 -0.0078125 7.128906 0.125 6.359375 0.125 C 4.648438 0.125 3.226562 -0.414062 2.09375 -1.5 C 0.957031 -2.59375 0.390625 -3.957031 0.390625 -5.59375 C 0.390625 -7.207031 0.972656 -8.554688 2.140625 -9.640625 C 3.304688 -10.734375 4.773438 -11.28125 6.546875 -11.28125 C 7.378906 -11.28125 8.203125 -11.128906 9.015625 -10.828125 C 9.835938 -10.523438 10.535156 -10.117188 11.109375 -9.609375 L 9.515625 -7.6875 C 9.109375 -8.050781 8.640625 -8.34375 8.109375 -8.5625 C 7.578125 -8.78125 7.050781 -8.890625 6.53125 -8.890625 C 5.613281 -8.890625 4.84375 -8.570312 4.21875 -7.9375 C 3.601562 -7.3125 3.296875 -6.53125 3.296875 -5.59375 C 3.296875 -4.644531 3.609375 -3.847656 4.234375 -3.203125 C 4.859375 -2.566406 5.632812 -2.25 6.5625 -2.25 C 7.15625 -2.25 7.816406 -2.429688 8.546875 -2.796875 Z M 8.546875 -5.6875 "/></g></g></g><g fill="#f4f6fc" fill-opacity="1"><g transform="translate(241.008018, 295.759789)"><g><path d="M 8.546875 -2.0625 L 3.65625 -2.0625 L 2.84375 0 L -0.078125 0 L 4.75 -11.171875 L 7.671875 -11.171875 L 12.375 0 L 9.34375 0 Z M 7.71875 -4.21875 L 6.109375 -8.359375 L 4.484375 -4.21875 Z M 7.71875 -4.21875 "/></g></g></g><g fill="#f4f6fc" fill-opacity="1"><g transform="translate(259.690278, 295.759789)"><g><path d="M 11.4375 0 L 8.921875 0 L 3.78125 -6.875 L 3.78125 0 L 1.125 0 L 1.125 -11.171875 L 3.625 -11.171875 L 8.78125 -4.28125 L 8.78125 -11.171875 L 11.4375 -11.171875 Z M 11.4375 0 "/></g></g></g><g fill="#f4f6fc" fill-opacity="1"><g transform="translate(278.62798, 295.759789)"><g><path d="M 9.875 -8.9375 L 3.953125 -8.9375 L 3.953125 -6.71875 L 9.296875 -6.71875 L 9.296875 -4.484375 L 3.953125 -4.484375 L 3.953125 -2.234375 L 10.046875 -2.234375 L 10.046875 0 L 1.125 0 L 1.125 -11.171875 L 9.875 -11.171875 Z M 9.875 -8.9375 "/></g></g></g><g fill="#f4f6fc" fill-opacity="1"><g transform="translate(164.312313, 311.162909)"><g><path d="M 3.953125 0 L 1.125 0 L 1.125 -11.171875 L 3.953125 -11.171875 Z M 3.953125 0 "/></g></g></g><g fill="#f4f6fc" fill-opacity="1"><g transform="translate(175.778544, 311.162909)"><g><path d="M 9.65625 -8.890625 L 6.296875 -8.890625 L 6.296875 0 L 3.453125 0 L 3.453125 -8.890625 L 0.109375 -8.890625 L 0.109375 -11.1875 L 9.65625 -11.1875 Z M 9.65625 -8.890625 "/></g></g></g><g fill="#f4f6fc" fill-opacity="1"><g transform="translate(191.922427, 311.162909)"><g><path d="M 8.546875 -2.0625 L 3.65625 -2.0625 L 2.84375 0 L -0.078125 0 L 4.75 -11.171875 L 7.671875 -11.171875 L 12.375 0 L 9.34375 0 Z M 7.71875 -4.21875 L 6.109375 -8.359375 L 4.484375 -4.21875 Z M 7.71875 -4.21875 "/></g></g></g><g fill="#f4f6fc" fill-opacity="1"><g transform="translate(210.60469, 311.162909)"><g><path d="M 11.4375 0 L 8.921875 0 L 3.78125 -6.875 L 3.78125 0 L 1.125 0 L 1.125 -11.171875 L 3.625 -11.171875 L 8.78125 -4.28125 L 8.78125 -11.171875 L 11.4375 -11.171875 Z M 11.4375 0 "/></g></g></g><g fill="#f4f6fc" fill-opacity="1"><g transform="translate(229.542399, 311.162909)"><g><path d="M 3.953125 0 L 1.125 0 L 1.125 -11.171875 L 3.953125 -11.171875 Z M 3.953125 0 "/></g></g></g><g fill="#f4f6fc" fill-opacity="1"><g transform="translate(97.618944, 341.969148)"><g><path d="M 3.953125 0 L 1.125 0 L 1.125 -11.171875 L 3.953125 -11.171875 Z M 3.953125 0 "/></g></g></g><g fill="#f4f6fc" fill-opacity="1"><g transform="translate(109.085175, 341.969148)"><g><path d="M 11.4375 0 L 8.921875 0 L 3.78125 -6.875 L 3.78125 0 L 1.125 0 L 1.125 -11.171875 L 3.625 -11.171875 L 8.78125 -4.28125 L 8.78125 -11.171875 L 11.4375 -11.171875 Z M 11.4375 0 "/></g></g></g><g fill="#f4f6fc" fill-opacity="1"><g transform="translate(128.022882, 341.969148)"><g><path d="M 6.359375 -11.28125 C 7.179688 -11.28125 7.992188 -11.109375 8.796875 -10.765625 C 9.609375 -10.421875 10.296875 -9.960938 10.859375 -9.390625 L 9.21875 -7.4375 C 8.851562 -7.882812 8.414062 -8.238281 7.90625 -8.5 C 7.40625 -8.757812 6.90625 -8.890625 6.40625 -8.890625 C 5.519531 -8.890625 4.78125 -8.578125 4.1875 -7.953125 C 3.59375 -7.335938 3.296875 -6.570312 3.296875 -5.65625 C 3.296875 -4.71875 3.59375 -3.929688 4.1875 -3.296875 C 4.78125 -2.671875 5.519531 -2.359375 6.40625 -2.359375 C 6.875 -2.359375 7.359375 -2.472656 7.859375 -2.703125 C 8.367188 -2.941406 8.820312 -3.265625 9.21875 -3.671875 L 10.875 -1.921875 C 10.269531 -1.296875 9.550781 -0.796875 8.71875 -0.421875 C 7.894531 -0.0546875 7.078125 0.125 6.265625 0.125 C 4.578125 0.125 3.175781 -0.421875 2.0625 -1.515625 C 0.945312 -2.609375 0.390625 -3.976562 0.390625 -5.625 C 0.390625 -7.226562 0.957031 -8.570312 2.09375 -9.65625 C 3.226562 -10.738281 4.648438 -11.28125 6.359375 -11.28125 Z M 6.359375 -11.28125 "/></g></g></g><g fill="#f4f6fc" fill-opacity="1"><g transform="translate(145.459901, 341.969148)"><g><path d="M 6.421875 -11.28125 C 8.148438 -11.28125 9.585938 -10.738281 10.734375 -9.65625 C 11.890625 -8.570312 12.46875 -7.222656 12.46875 -5.609375 C 12.46875 -3.972656 11.890625 -2.609375 10.734375 -1.515625 C 9.578125 -0.421875 8.132812 0.125 6.40625 0.125 C 4.6875 0.125 3.253906 -0.414062 2.109375 -1.5 C 0.960938 -2.59375 0.390625 -3.960938 0.390625 -5.609375 C 0.390625 -7.234375 0.960938 -8.582031 2.109375 -9.65625 C 3.253906 -10.738281 4.691406 -11.28125 6.421875 -11.28125 Z M 6.453125 -8.890625 C 5.578125 -8.890625 4.832031 -8.570312 4.21875 -7.9375 C 3.601562 -7.3125 3.296875 -6.53125 3.296875 -5.59375 C 3.296875 -4.65625 3.601562 -3.863281 4.21875 -3.21875 C 4.84375 -2.570312 5.585938 -2.25 6.453125 -2.25 C 7.316406 -2.25 8.046875 -2.570312 8.640625 -3.21875 C 9.242188 -3.863281 9.546875 -4.65625 9.546875 -5.59375 C 9.546875 -6.53125 9.242188 -7.3125 8.640625 -7.9375 C 8.046875 -8.570312 7.316406 -8.890625 6.453125 -8.890625 Z M 6.453125 -8.890625 "/></g></g></g><g fill="#f4f6fc" fill-opacity="1"><g transform="translate(164.700933, 341.969148)"><g><path d="M 7.859375 0 L 6.203125 -3.140625 L 3.953125 -3.140625 L 3.953125 0 L 1.125 0 L 1.125 -11.171875 L 6.109375 -11.171875 C 7.585938 -11.171875 8.734375 -10.832031 9.546875 -10.15625 C 10.359375 -9.488281 10.765625 -8.53125 10.765625 -7.28125 C 10.765625 -5.550781 10.085938 -4.351562 8.734375 -3.6875 L 11.078125 0 Z M 3.953125 -5.375 L 6.109375 -5.375 C 6.734375 -5.375 7.210938 -5.53125 7.546875 -5.84375 C 7.890625 -6.15625 8.0625 -6.601562 8.0625 -7.1875 C 8.0625 -7.757812 7.890625 -8.191406 7.546875 -8.484375 C 7.210938 -8.785156 6.734375 -8.9375 6.109375 -8.9375 L 3.953125 -8.9375 Z M 3.953125 -5.375 "/></g></g></g><g fill="#f4f6fc" fill-opacity="1"><g transform="translate(182.648826, 341.969148)"><g><path d="M 1.125 -11.171875 L 5.984375 -11.171875 C 7.410156 -11.171875 8.515625 -10.832031 9.296875 -10.15625 C 10.085938 -9.488281 10.484375 -8.53125 10.484375 -7.28125 C 10.484375 -5.96875 10.085938 -4.945312 9.296875 -4.21875 C 8.515625 -3.5 7.410156 -3.140625 5.984375 -3.140625 L 3.953125 -3.140625 L 3.953125 0 L 1.125 0 Z M 3.953125 -8.9375 L 3.953125 -5.375 L 5.84375 -5.375 C 6.46875 -5.375 6.953125 -5.53125 7.296875 -5.84375 C 7.640625 -6.15625 7.8125 -6.601562 7.8125 -7.1875 C 7.8125 -7.757812 7.640625 -8.191406 7.296875 -8.484375 C 6.953125 -8.785156 6.46875 -8.9375 5.84375 -8.9375 Z M 3.953125 -8.9375 "/></g></g></g><g fill="#f4f6fc" fill-opacity="1"><g transform="translate(199.89427, 341.969148)"><g><path d="M 6.421875 -11.28125 C 8.148438 -11.28125 9.585938 -10.738281 10.734375 -9.65625 C 11.890625 -8.570312 12.46875 -7.222656 12.46875 -5.609375 C 12.46875 -3.972656 11.890625 -2.609375 10.734375 -1.515625 C 9.578125 -0.421875 8.132812 0.125 6.40625 0.125 C 4.6875 0.125 3.253906 -0.414062 2.109375 -1.5 C 0.960938 -2.59375 0.390625 -3.960938 0.390625 -5.609375 C 0.390625 -7.234375 0.960938 -8.582031 2.109375 -9.65625 C 3.253906 -10.738281 4.691406 -11.28125 6.421875 -11.28125 Z M 6.453125 -8.890625 C 5.578125 -8.890625 4.832031 -8.570312 4.21875 -7.9375 C 3.601562 -7.3125 3.296875 -6.53125 3.296875 -5.59375 C 3.296875 -4.65625 3.601562 -3.863281 4.21875 -3.21875 C 4.84375 -2.570312 5.585938 -2.25 6.453125 -2.25 C 7.316406 -2.25 8.046875 -2.570312 8.640625 -3.21875 C 9.242188 -3.863281 9.546875 -4.65625 9.546875 -5.59375 C 9.546875 -6.53125 9.242188 -7.3125 8.640625 -7.9375 C 8.046875 -8.570312 7.316406 -8.890625 6.453125 -8.890625 Z M 6.453125 -8.890625 "/></g></g></g><g fill="#f4f6fc" fill-opacity="1"><g transform="translate(219.135302, 341.969148)"><g><path d="M 7.859375 0 L 6.203125 -3.140625 L 3.953125 -3.140625 L 3.953125 0 L 1.125 0 L 1.125 -11.171875 L 6.109375 -11.171875 C 7.585938 -11.171875 8.734375 -10.832031 9.546875 -10.15625 C 10.359375 -9.488281 10.765625 -8.53125 10.765625 -7.28125 C 10.765625 -5.550781 10.085938 -4.351562 8.734375 -3.6875 L 11.078125 0 Z M 3.953125 -5.375 L 6.109375 -5.375 C 6.734375 -5.375 7.210938 -5.53125 7.546875 -5.84375 C 7.890625 -6.15625 8.0625 -6.601562 8.0625 -7.1875 C 8.0625 -7.757812 7.890625 -8.191406 7.546875 -8.484375 C 7.210938 -8.785156 6.734375 -8.9375 6.109375 -8.9375 L 3.953125 -8.9375 Z M 3.953125 -5.375 "/></g></g></g><g fill="#f4f6fc" fill-opacity="1"><g transform="translate(237.083189, 341.969148)"><g><path d="M 8.546875 -2.0625 L 3.65625 -2.0625 L 2.84375 0 L -0.078125 0 L 4.75 -11.171875 L 7.671875 -11.171875 L 12.375 0 L 9.34375 0 Z M 7.71875 -4.21875 L 6.109375 -8.359375 L 4.484375 -4.21875 Z M 7.71875 -4.21875 "/></g></g></g><g fill="#f4f6fc" fill-opacity="1"><g transform="translate(255.765449, 341.969148)"><g><path d="M 9.65625 -8.890625 L 6.296875 -8.890625 L 6.296875 0 L 3.453125 0 L 3.453125 -8.890625 L 0.109375 -8.890625 L 0.109375 -11.1875 L 9.65625 -11.1875 Z M 9.65625 -8.890625 "/></g></g></g><g fill="#f4f6fc" fill-opacity="1"><g transform="translate(271.909327, 341.969148)"><g><path d="M 9.875 -8.9375 L 3.953125 -8.9375 L 3.953125 -6.71875 L 9.296875 -6.71875 L 9.296875 -4.484375 L 3.953125 -4.484375 L 3.953125 -2.234375 L 10.046875 -2.234375 L 10.046875 0 L 1.125 0 L 1.125 -11.171875 L 9.875 -11.171875 Z M 9.875 -8.9375 "/></g></g></g><g fill="#f4f6fc" fill-opacity="1"><g transform="translate(289.058976, 341.969148)"><g><path d="M 1.125 -11.171875 L 5.921875 -11.171875 C 7.679688 -11.171875 9.109375 -10.65625 10.203125 -9.625 C 11.304688 -8.59375 11.859375 -7.25 11.859375 -5.59375 C 11.859375 -3.9375 11.300781 -2.585938 10.1875 -1.546875 C 9.070312 -0.515625 7.613281 0 5.8125 0 L 1.125 0 Z M 3.953125 -8.90625 L 3.953125 -2.265625 L 5.984375 -2.265625 C 6.859375 -2.265625 7.570312 -2.570312 8.125 -3.1875 C 8.6875 -3.800781 8.96875 -4.597656 8.96875 -5.578125 C 8.96875 -6.554688 8.675781 -7.351562 8.09375 -7.96875 C 7.507812 -8.59375 6.765625 -8.90625 5.859375 -8.90625 Z M 3.953125 -8.90625 "/></g></g></g></svg>